<?xml version="1.0" encoding="utf-8"?>
<!-- Generator: Adobe Illustrator 25.2.3, SVG Export Plug-In . SVG Version: 6.00 Build 0)  -->
<svg version="1.1" id="Layer_1" xmlns="http://www.w3.org/2000/svg" xmlns:xlink="http://www.w3.org/1999/xlink" x="0px" y="0px"
	 viewBox="0 0 1080 604" style="enable-background:new 0 0 1080 604;" xml:space="preserve">
<style type="text/css">
	.st0{fill:none;}
	.st1{fill:#FFFFFF;}
</style>
<rect x="615.42" y="511.86" class="st0" width="21.29" height="1.85"/>
<g>
	<path class="st1" d="M237.64,50.59c0.38-1.26,0.63-2.13,0.63-3.26c0-0.63,0.12-1.25,0.12-1.88c0-0.63-0.12-1.25-0.38-1.76
		c-1.51-1.76-2.26-2.39-3.64-2.39c-0.5,0-1.38,0.13-2.13,0.25c-0.5,0.13-0.63,0.38-1.13,0.38c-1.51-0.13-2.38-0.5-3.89-0.5
		c-1.63,0-2.76,0.25-4.14,0.63c-0.63,0.25-1.38,0.25-2.01,0.25h-1.25c-1,0-1.76-0.63-2.13-1.51c0.25-1.38,1.13-2.51,1.51-3.89
		c0.5-1.63,1.25-3.26,2.26-4.64c0.5-0.75,1-1.51,1.51-2.38c1.51-2.76,3.64-5.02,6.02-7.15c0.75-0.63,1.38-1.25,2.01-2.01
		c0.25-0.38,0.38-0.75,0.5-1.13c-0.25-1.13-0.75-1.88-1.51-2.51c-0.5-0.13-1-0.25-1.51-0.25c-0.63,0-1.25,0.13-1.88,0.25
		c-0.38,0.25-0.88,0.63-1.25,1.13c-1.13,1.38-1.76,2.64-2.89,3.77c-1.25,1.25-1.38,1.51-2.64,3.01c-0.75,0.88-1.63,2.13-2.26,3.14
		c-0.5,1-1.13,1.63-1.63,2.38c-0.38,0.5-0.63,1-0.75,1.63c-0.75,2.64-2.01,4.39-3.14,7.28c-0.38,0.88-0.38,1.51-0.5,2.38
		c-0.25,0.75-0.63,1.38-0.63,2.01c0,0.25,0,0.38,0.13,0.63c0.25,0.25,0.38,0.5,0.63,0.63c1.25,0.63,2.13,1.63,3.77,2.01
		c0.75,0.25,1.38,0.25,2.01,0.25c1,0,1.88-0.13,2.89-0.13c2.01,0,3.51-0.63,5.77-0.63h0.63c1.25,0,2.13,0.63,3.14,1
		c0.75,0.25,1.51,1,1.51,2.01c0,1.76-1,2.64-1.51,4.14c-0.5,1.51-0.63,2.76-1.25,4.39c-0.75,1.76-1.88,2.76-2.38,4.27
		c-0.13,0.5-0.25,0.88-0.5,1.26c-1.13,1.38-1.76,3.01-3.01,4.27c-2.76,3.01-5.52,6.02-8.66,8.66c-1.38,1.26-2.64,2.64-3.77,3.89
		c-0.13,0.5-0.38,0.88-0.38,1.13v1c0,2.01,1,2.51,3.01,2.51c0.75,0,1.51,0,2.76-0.75c0,0,0.5-0.5,0.88-1
		c1.38-2.26,3.26-4.14,5.15-6.02c1.51-1.63,3.14-3.14,4.64-4.77c0.63-0.63,1.13-1.38,1.76-2.13c1.38-1.76,2.26-3.89,3.51-5.65
		c1.51-2.13,2.51-4.27,3.39-6.65C235.88,55.62,236.76,53.61,237.64,50.59z"/>
	<path class="st1" d="M247.68,93.27c0.38,0,0.63,0.13,1,0.13c1.88,0,3.64-0.5,5.9-0.88c1.51-0.25,2.38-0.38,3.64-0.75
		c1.13-0.38,2.51-0.38,3.64-1c0.38-0.25,0.88-0.25,1.38-0.25c0.63,0,1.13,0.13,1.76,0.13c1.88,0,3.64-0.38,5.52-1.38
		c1.63-0.88,5.4-0.5,6.28-1.76c0.63-0.75,0.38-2.51-0.12-3.14c-0.25-0.25-1.26-1.26-1.63-1.13c-1.13,0.5-2.26,1.13-3.39,1.63
		c-0.88,0-1.63,0-2.38,0.25c-1.88,0.5-3.77,0.25-5.52,1c-1.88,0.88-4.02,0.5-5.9,1.38c-0.63,0.25-1.25,0.5-1.88,0.5
		c-0.75,0-1.63-0.25-2.38-0.38c-0.5-0.13-1-0.88-1-1.38s0.12-1,0.25-1.38c0.5-1,0.75-2.13,0.75-3.26c0.12-1.88,0-3.64,0.75-5.52
		c0.38-1,0.12-2.13,0.5-3.26c0.38-1.13,0.63-2.38,1-3.64c0.25-1,0.75-2.13,1-3.01c0.63-0.88,1.25-1.51,2.01-1.88
		c1.26-0.25,2.26-0.38,3.26-0.75c0.75-0.25,1.63-0.38,2.38-0.38c1.13,0,2.13-0.25,3.26-0.13c0.25,0,0.38,0.13,0.63,0.13
		c2.38,0,4.52-0.75,6.78-1.25c0.88-0.25,1.76-0.63,2.63-1.13c0.75-0.38,1.13-1,1.26-1.88c0-0.5,0.12-0.88,0-1.38
		c0-0.25-0.25-0.5-0.38-0.75c-0.25-0.13-0.63-0.25-0.88-0.25h-2.26c-1.38,0.63-2.76,1.26-3.51,1.63c-1.51,0.38-2.76,0.5-3.89,0.5
		c-0.38,0-0.63-0.13-1-0.13h-0.38h-0.12h-2.26c-0.88,0-1.88,0.13-2.76,0.5c-0.12,0-0.25-0.13-0.38-0.13c-0.88-0.38-1.13-1-1-2.13
		c0.63-1.38,1.26-3.01,2.01-4.52c0.75-1.76,1.38-3.51,1.76-5.4c0.25-1.63,1-3.14,1.26-4.9c0.25-1.26,1-2.38,1.38-3.39
		c0.12-1,0-1.76,0.25-2.51c0.75-2.76,1.76-5.4,3.26-7.78c0.25-0.38,0.75-0.63,1.13-0.88c1.13-0.25,2.38-0.38,3.51-0.38h1.63h0.13
		c1.38,0,2.51-0.63,4.14-0.63c1.76,0,3.01,0.75,4.52,0.75c0.12,0,0.38-0.13,0.5-0.13c0.88-0.13,1.51-0.63,1.76-1.38
		c0.25-0.63,0.12-1.26-0.25-1.76c-0.75-0.63-1.51-1.13-2.76-1.38c-2.13,0.13-4.39,0.63-7.16,0.63c-1.25,0-2.26-0.38-3.26-0.63
		c-0.38-0.13-0.75-0.25-1.13-0.5c-0.12-0.88-0.5-1.63-0.63-2.38c-0.13-0.5-1-1-1.51-0.88c-0.25,0.13-0.63,0.25-0.88,0.38
		c-1,0.63-1.88,1.26-2.38,2.26c-0.5,0.75-0.75,1.76-1.13,2.76c-0.38,1-0.88,1.63-1.38,2.76c-0.38,0.88-0.88,1.63-0.88,2.38
		c0,1.13-0.13,2.26-0.5,3.26c-0.88,2.01-1.38,4.14-1.51,6.4c0,0.63-0.5,1.13-0.63,1.76c-0.5,2.13-0.5,3.89-1.26,6.28
		c-0.75,2.38-1.76,3.89-2.51,5.77c-0.75,2.01-1.76,4.02-2.76,6.4c-1.51,1-3.01,1.88-3.77,3.51c0.38,1,0.88,2.01,1.13,2.76
		c-0.25,1-0.38,1.76-0.5,2.51c-0.12,0.63,0,1.38-0.25,1.88c-1.13,2.76-1.26,5.27-1.88,8.66c-0.38,2.01-0.75,3.77-1,5.4
		c-0.63,2.13-1.38,4.02-2.26,5.9c-0.38,0.75-0.38,1.51-0.12,2.26C246.55,92.64,247.05,93.02,247.68,93.27z"/>
	<path class="st1" d="M300.39,91.14h2.64h1.38c1.13,0,2.13-0.63,3.26-0.75c0.13,0,0.25-0.13,0.38-0.13l1.88-0.25
		c0.75-0.13,1.51-0.38,2.26-0.5c0.75-0.13,1.51-0.13,2.38-0.13c0.63,0,1.26,0,1.88-0.13c1.76-0.25,3.51-0.63,5.15-1
		c0.25,0,0.63-0.75,0.63-1.13c0-0.25,0.13-0.63,0.13-0.88c0-1.51-1.13-2.38-2.39-2.51c-0.38,0-0.88-0.13-1.25-0.13
		c-0.75,0-1.38,0.13-2.01,0.38c-0.63,0.25-1.13,0.63-1.76,0.63l-2.76,0.25c-1,0.13-2.01,0.25-2.89,0.63
		c-0.75,0.25-1.51,0.13-2.26,0.25c-0.63,0.13-1.13,0.5-1.76,0.5c-0.13,0-0.38-0.13-0.5-0.13c-0.13-0.25-0.5-0.38-0.5-0.63
		c-0.13-0.63-0.13-1.13-0.13-1.76c0-0.88,0-1.63,0.38-2.39c0.63-1.38,0.38-2.76,1-4.14c0.63-1.25,0.75-2.01,1-3.39
		c0.38-2.39,0.63-4.39,0.75-6.28c0-0.75,0.38-1.88,0.63-2.51c0-0.88,0.13-1.25,0.13-2.13v-1.88v-1c0-0.38,0-0.63,0.13-0.88
		c0.75-1.63,0.75-3.26,0.88-5.02c0.25-1.88,0-3.89,0.75-5.65c0.25-0.75,0.13-1.51,0.25-2.26c0.12-0.63,0-1.26,0.25-1.88
		c0.38-1,0.5-2.13,0.5-3.26c0.13-1.76,0-3.51,0.38-5.15c0.25-1.26,0.38-2.51,0.5-3.77c0.12-1.13,0.12-2.13,0.12-3.26v-0.25
		c0-1,0.63-1.88,0.75-2.89c0.25-1.88,0.5-3.39,1-5.52c0.63-2.89,0.88-4.9,1.88-7.28v-0.5v-1c-0.5-1-1.13-1.88-2.38-2.13h-0.12
		c-0.75,0-1,0.88-1.51,1.51c-0.75,2.26-1.13,4.14-1.63,6.78v0.25v0.5v0.25c-0.25,1.63-0.63,2.51-1,4.14c-0.5,2.13-0.38,3.77-1,5.52
		c-0.38,1.13-0.63,2.13-0.63,3.26v2.51c0,2.89-0.13,5.77-0.75,8.66c-0.25,0.88-0.12,1.88-0.25,2.89v0.75c0,0.25,0,0.38-0.13,0.63
		c-0.75,1.63-0.63,3.39-0.75,5.15s-0.25,3.26-0.63,5.02c-0.38,1.88-0.25,3.77-0.38,5.65c0,0.63-0.25,1.26-0.5,1.88
		c-0.25,0.75-0.38,1.51-0.38,2.26c0,1.38-0.13,2.76-0.13,4.14c0,2.26-0.5,4.39-1.25,6.53c-1.26,3.77-2.89,6.65-3.39,11.05v0.25
		C298.64,89.88,299.39,90.76,300.39,91.14z"/>
	<path class="st1" d="M340.94,93.4c0.75,0.13,1.63,0.25,2.38,0.25c1.25,0,2.38-0.13,3.64-0.13c0.5,0,1,0,1.38-0.25
		c1-0.5,2.13-0.63,3.26-0.75s2.01-0.63,3.14-0.88c2.76-0.5,5.27-1.76,7.78-3.14c0.63-0.38,1.13-0.88,1.13-1.63v-0.25
		c0-0.13,0-0.38-0.13-0.5c-0.5-0.75-1-1.13-1.63-1.13c-0.25,0-0.5,0-0.75,0.13c-0.63,0.25-1.13,0.5-1.76,0.63
		c-2.51,0.25-4.64,1.76-7.66,2.26c-1.13,0.13-2.13,0.25-3.01,0.25c-1.26,0-2.26-0.13-3.64-0.13c-0.25,0-0.5-0.25-1-0.38
		c-0.25-0.38-0.63-1-1-1.51c0-1.88-0.12-3.77-0.12-5.65c0-0.75,0-1.76,0.25-2.38c0.5-1.13,0.5-2.26,0.75-3.64
		c0.25-1.51,0.38-2.38,0.75-3.89c0.38-1.63,0.88-2.51,1.13-4.02v-2.13c0-0.75,0-1.63,0.12-2.38c1.13-1,2.01-1.51,3.01-1.51
		c2.38-0.13,4.64-1,6.78-1.88l3.01-1.13c1.26-0.63,2.51-1.13,4.02-1.13c0.88,0,1.63-0.5,1.76-1.38v-0.25c0-0.88-0.63-1.76-1.38-1.88
		h-0.5h-1.13c-0.88,0-1.76,0-2.64,0.38c-2.76,1-5.65,1.88-8.41,2.89l-2.01,0.5h-0.25c-0.38,0-0.88-0.38-1.26-0.5
		c-0.12-0.63-0.12-1.26-0.12-1.88c0-0.88,0.38-1.76,0.38-2.51c0-0.5,0.25-0.88,0.38-1.38c0.38-2.26,0-3.39,0.63-5.02
		c0.38-0.88,0.5-1.88,0.5-2.76c0-0.75-0.13-1.63-0.13-2.38c0-2.64,0.13-5.4,0.25-8.03c0-0.5,0-1,0.13-1.38
		c0.5-1.13,0.63-2.26,0.63-3.39c0-1-0.13-2.13-0.13-3.14c-0.13-0.5-0.38-0.88-0.5-1.38c-0.13-0.25-0.13-0.63-0.13-0.88
		c0-0.5,0.13-0.88,0.5-1.26c0.63-0.25,1.38-0.63,2.26-1c1.51,0,3.26-0.13,5.02-0.13c1,0,1.88-0.13,2.76-0.5l1.13-0.13
		c0.38,0,0.75,0,1.13,0.13c0.75,0.25,1.63,0.38,2.38,0.38c1.88,0,3.77,0,5.65,0.13c0.63,0,1.38,0,1.88,0.25
		c1.38,0.75,3.14,0.5,4.52,1.13c0.25,0.13,0.63,0.13,0.88,0.13c0.88-0.38,1.88-0.63,2.51-1.38c0.63-0.88,1.13-1.76,1.13-2.89
		c-0.25-0.63-0.75-0.88-1.25-0.88h-0.25c-0.75,0.13-1.38,0.5-2.13,0.63c-0.75,0.13-1.51,0.25-2.26,0.25c-1,0-2.01-0.13-2.89-0.63
		c-0.63-0.38-1.63-0.25-2.38-0.38h-0.63h-1.13c-0.38,0-0.63,0-1-0.13c-1.63-0.63-3.39-0.63-5.15-0.63c-2.01,0-4.14,0-6.15-0.13
		h-2.26c-1.25,0-2.64,0-3.89,0.25c-0.63,0.38-1.38,0.63-2.01,1c-0.75,0.5-1.13,1.26-1.13,2.13v0.38v0.13c0,0.63-0.88,0.75-0.88,1.38
		v0.25c-0.13,0.25-0.25,0.38-0.25,0.63c0,0.38,0.25,0.88,0.25,1.38c0,0.25-0.13,0.5-0.25,0.75c-0.12,0.25-0.25,0.5-0.25,0.75
		c0,0.38,0.13,0.75,0.13,1.13c0.12,2.01,0.12,4.02,0.12,6.02v8.16c0,0.88-0.12,1.88-0.38,2.76c-0.38,1.13-0.5,2.13-0.5,3.26
		c0,1.76,0,3.39-0.12,5.15c0,0.63,0,1.38-0.25,1.88c-0.63,1.38-0.5,2.76-0.63,4.14c0,1.13,0,2.26-0.38,3.26
		c-0.5,1.51-0.5,3.14-0.63,4.64c-0.13,1.51-0.75,3.01-0.75,4.64c0,1.38-0.63,2.51-0.88,4.14c-0.5,2.51-1.13,4.27-1.25,6.53
		c0,0.5-0.25,0.88-0.38,1.38c-0.13,0.63-0.38,1.13-0.38,1.76c-0.12,1.38-0.12,2.76-0.12,4.02c0,1-0.25,1.88-0.25,2.89
		c0,0.63,0.13,1.25,0.38,1.88C338.93,92.89,340.06,93.02,340.94,93.4z"/>
	<path class="st1" d="M392.27,60.26v3.89c0,1.38,0.75,2.64,0.88,4.02c0,0.5,0.25,0.88,0.38,1.13c1.51,2.51,3.89,3.89,6.15,5.4
		c2.38,1.63,5.02,2.38,7.91,2.51c1.51,0.13,2.89,0.13,4.39,0.13h0.38c0.63,0,1.13-0.13,1.63-0.25c0.88-0.63,1-1.38,1-2.13
		c-0.12-1.25-0.5-2.51-1.88-3.26c-0.75-0.13-1.51-0.13-2.26-0.13c-1.51,0-3.01,0.13-4.52,0.13c-1,0-1.88,0-2.89-0.25
		c-1.76-0.63-3.39-1.25-4.64-3.39c-0.25-0.38-0.75-1.38-1.13-2.38c-0.88-2.01-1.63-4.02-1.63-6.15c0-1,0.12-1.88,0.5-2.89
		c0.12-0.38,0.12-0.88,0.12-1.38c0-0.88,0.13-2.01,0.13-2.64c1.13-3.01,3.39-4.77,5.02-7.15c0.88-1.25,2.26-2.01,3.51-3.01
		c1.38-1,2.89-1.76,4.64-2.13l4.14-1.13c0.88-0.25,1.76-0.63,2.38-1.38c0.38-1,0.25-1.88-0.5-2.64c-0.75-0.75-1.63-1.63-2.76-2.13
		c-1.63-0.13-3.14-0.25-4.77-0.25c-1,0-2.01,0-3.01,0.13c-2.38,0.88-4.64,1.88-6.53,3.77c-0.38,0.38-1,0.63-1.51,1
		c-1.13,0.88-2.26,1.76-3.01,3.14l1.51,3.39c-0.13,0.38-0.13,0.88-0.38,1.25c-0.25,0.5-0.63,1-1,1.51
		c-1.13,1.13-1.88,2.64-2.38,4.14c-0.13,0.63-0.25,1.13-0.5,1.76c-0.38,1.13-0.5,2.26-0.13,3.26
		C392.02,57.5,392.27,58.88,392.27,60.26z"/>
	<path class="st1" d="M463.06,30.64c0.63,0.13,1.13,0.38,1.76,0.38h0.25c0.63,0,1.51-0.38,2.01-0.75s0.75-0.88,0.75-1.51
		c0-0.38-0.13-0.75-0.25-1c-0.5-1-1.63-1.13-3.01-1.38c-0.38,0-0.75-0.13-1.13-0.13c-1,0-1.76,0.25-2.89,0.25
		c-0.63,0-1.38-0.13-2.01-0.13h-1.26h-2.51c-2.38,0-4.64,0.13-7.03,0.13c-0.88,0-1.51-0.5-1.76-1.38c-0.12-0.63-0.25-1.25-0.63-1.76
		c-0.25-0.5-1-0.75-1.76-0.75h-0.38c-0.75,0.13-1,0.75-1.13,1.38c-0.12,0.5,0,1-0.12,1.51c-0.13,0.63-0.5,1.13-1.13,1.63
		c-2.01,0.63-4.27,1.38-5.65,1.76c-0.63,0.13-1.13,0.13-1.63,0.13c-0.88,0-1.51-0.13-2.26-0.13c-0.63,0-1.25,0.13-2.01,0.5
		c-0.75,0.5-1.13,1.13-1.13,2.01c0,0.38,0,0.63,0.13,1c0.25,0.75,0.63,1.51,1.13,2.01l1.38,0.5c0.25,0,0.63-0.13,0.88-0.25
		c2.01-0.88,4.14-1.26,6.15-2.26c0.63-0.38,1.63-0.38,2.38-0.5h0.25c0.5,0,1.13,0.25,1.51,0.75c-0.13,1-0.5,2.13-0.5,3.14
		c-0.13,3.51-0.38,7.15-0.38,10.67c0,0.88,0.12,1.63,0.12,2.51v5.9v8.16v2.51v1.51c0,0.75,0,1.63-0.25,2.26
		c-0.25,1.13-0.38,2.13-0.5,3.26c-0.25,2.38-0.63,4.14-0.88,6.9c-0.13,1.63-0.13,2.89-0.25,4.27c-0.12,0.75-0.5,1.63-0.5,2.64v0.38
		c0.12,1,0.25,1.63,0.88,2.38c0.12,0.25,0.5,0.38,0.75,0.38c0.13,0,0.38,0,0.5-0.13c1.25-0.75,1.76-1.38,2.64-2.51
		c0-0.13,0.13-0.13,0.13-0.25c0-0.25-0.25-0.5-0.25-0.75c-0.12-1.63-0.38-2.89-0.38-4.27c0-1.25,0.13-2.38,0.63-3.64
		c0.25-0.88,0.13-2.01,0.25-2.89c0.12-1.13,0.12-2.13,0.12-3.26c0.63-1.26,0.75-2.64,0.75-3.89v-1.38c0-5.02,0.12-9.92,0.12-14.94
		c0-1.13,0-2.13-0.12-3.26v-0.63c0-1.13,0.12-3.14,0.25-4.02c0.25-2.64,0.25-2.39,0.63-5.02c0.38-2.76,0.25-4.64,0.38-7.03
		l1.38-1.38c1-0.13,1.88-0.25,2.76-0.25c3.64,0,7.28,0.13,10.92,0.25C461.81,30.26,462.43,30.51,463.06,30.64z"/>
	<path class="st1" d="M518.92,16.08h-0.25c-0.75,0.13-1.38,0.5-2.13,0.63c-0.75,0.13-1.51,0.25-2.26,0.25c-1,0-2.01-0.13-2.89-0.63
		c-0.63-0.38-1.63-0.25-2.38-0.38h-0.63h-1.13c-0.38,0-0.63,0-1-0.13c-1.63-0.63-3.39-0.63-5.15-0.63c-2.01,0-4.14,0-6.15-0.13
		h-2.26c-1.25,0-2.64,0-3.89,0.25c-0.63,0.38-1.38,0.63-2.01,1c-0.75,0.5-1.13,1.26-1.13,2.13v0.38v0.13c0,0.63-0.88,0.75-0.88,1.38
		v0.25c-0.13,0.25-0.25,0.38-0.25,0.63c0,0.38,0.25,0.88,0.25,1.38c0,0.25-0.13,0.5-0.25,0.75c-0.12,0.25-0.25,0.5-0.25,0.75
		c0,0.38,0.13,0.75,0.13,1.13c0.12,2.01,0.12,4.02,0.12,6.02v8.16c0,0.88-0.12,1.88-0.38,2.76c-0.38,1.13-0.5,2.13-0.5,3.26
		c0,1.76,0,3.39-0.12,5.15c0,0.63,0,1.38-0.25,1.88c-0.63,1.38-0.5,2.76-0.63,4.14c0,1.13,0,2.26-0.38,3.26
		c-0.5,1.51-0.5,3.14-0.63,4.64s-0.75,3.01-0.75,4.64c0,1.38-0.63,2.51-0.88,4.14c-0.5,2.51-1.13,4.27-1.25,6.53
		c0,0.5-0.25,0.88-0.38,1.38c-0.12,0.63-0.38,1.13-0.38,1.76c-0.12,1.38-0.12,2.76-0.12,4.02c0,1-0.25,1.88-0.25,2.89
		c0,0.63,0.13,1.25,0.38,1.88c0.5,1.13,1.63,1.25,2.51,1.63c0.75,0.13,1.63,0.25,2.38,0.25c1.25,0,2.38-0.13,3.64-0.13
		c0.5,0,1,0,1.38-0.25c1-0.5,2.13-0.63,3.26-0.75c1.13-0.13,2.01-0.63,3.14-0.88c2.76-0.5,5.27-1.76,7.78-3.14
		c0.63-0.38,1.13-0.88,1.13-1.63v-0.25c0-0.13,0-0.38-0.13-0.5c-0.5-0.75-1-1.13-1.63-1.13c-0.25,0-0.5,0-0.75,0.13
		c-0.63,0.25-1.13,0.5-1.76,0.63c-2.51,0.25-4.64,1.76-7.66,2.26c-1.13,0.13-2.13,0.25-3.01,0.25c-1.25,0-2.26-0.13-3.64-0.13
		c-0.25,0-0.5-0.25-1-0.38c-0.25-0.38-0.63-1-1-1.51c0-1.88-0.12-3.77-0.12-5.65c0-0.75,0-1.76,0.25-2.38
		c0.5-1.13,0.5-2.26,0.75-3.64c0.25-1.51,0.38-2.38,0.75-3.89c0.38-1.63,0.88-2.51,1.13-4.02v-2.13c0-0.75,0-1.63,0.12-2.38
		c1.13-1,2.01-1.51,3.01-1.51c2.38-0.13,4.64-1,6.78-1.88l3.01-1.13c1.25-0.63,2.51-1.13,4.02-1.13c0.88,0,1.63-0.5,1.76-1.38v-0.25
		c0-0.88-0.63-1.76-1.38-1.88h-0.5h-1.13c-0.88,0-1.76,0-2.63,0.38c-2.76,1-5.65,1.88-8.41,2.89l-2.01,0.5h-0.25
		c-0.38,0-0.88-0.38-1.25-0.5c-0.13-0.63-0.13-1.26-0.13-1.88c0-0.88,0.38-1.76,0.38-2.51c0-0.5,0.25-0.88,0.38-1.38
		c0.38-2.26,0-3.39,0.63-5.02c0.38-0.88,0.5-1.88,0.5-2.76c0-0.75-0.12-1.63-0.12-2.38c0-2.64,0.12-5.4,0.25-8.03
		c0-0.5,0-1,0.13-1.38c0.5-1.13,0.63-2.26,0.63-3.39c0-1-0.12-2.13-0.12-3.14c-0.13-0.5-0.38-0.88-0.5-1.38
		c-0.13-0.25-0.13-0.63-0.13-0.88c0-0.5,0.13-0.88,0.5-1.26c0.63-0.25,1.38-0.63,2.26-1c1.51,0,3.26-0.13,5.02-0.13
		c1,0,1.88-0.13,2.76-0.5l1.13-0.13c0.38,0,0.75,0,1.13,0.13c0.75,0.25,1.63,0.38,2.38,0.38c1.88,0,3.77,0,5.65,0.13
		c0.63,0,1.38,0,1.88,0.25c1.38,0.75,3.14,0.5,4.52,1.13c0.25,0.13,0.63,0.13,0.88,0.13c0.88-0.38,1.88-0.63,2.51-1.38
		c0.63-0.88,1.13-1.76,1.13-2.89C519.92,16.33,519.42,16.08,518.92,16.08z"/>
	<path class="st1" d="M561.59,50.59c-0.88-0.88-1.51-2.13-2.13-3.14c-1.38-2.13-2.38-4.02-4.27-6.28c-1.13-1.38-1.51-1.63-2.26-3.14
		c-0.25-0.5-1.51-1.51-2.01-1.88c-0.75-0.5-1.51-0.88-2.01-1.51c-1-1.13-2.26-2.13-3.26-3.26c-1.26-1.26-2.51-2.51-3.52-3.89
		c-0.75-1-1.63-1.38-2.38-2.39c-0.38-0.5-0.75-1-1.13-1.38h-0.5c-1.13,0-1.76,0.88-2.38,1.63c-0.75,2.01-1.51,4.02-1.51,6.15v0.25
		c-0.63,1.38-0.75,2.76-0.75,4.27v1v1.13c-0.13,1,0,2.13-0.13,3.26c0,1,0,1.88,0,2.89c0,0.75,0,1.63-0.25,2.38
		c-0.5,1.38-0.63,2.76-0.63,4.14c0,0.38,0,0.88,0,1.26c0,1.38,0,2.64-0.13,4.39c-0.13,2.26-0.38,3.51-0.63,5.65
		c-0.38,3.14-0.88,4.9-1.25,8.03v0.13c0,0.25,0.13,0.38,0.13,0.63c0,0.13,0,0.13,0,0.25c0,0,0,0.13,0,0.25c0,0.5-0.13,1-0.25,1.38
		c-0.63,1.51-0.5,3.14-0.63,4.64c-0.12,1.88-0.12,3.77-0.88,5.52c-0.12,0.25-0.12,0.5-0.12,0.75c0,1,0.75,1.76,1.88,2.01
		c0.5,0.13,1,0.25,1.63,0.25c0.38,0,0.88-0.13,1.38-0.25c1.63-1.51,4.14-1.88,6.28-3.14c0.63-0.63,1.38-1.38,2.26-2.13
		c1.88-0.63,3.64-1.88,5.4-2.89c1.88-1.13,3.64-2.38,5.15-4.02c0.5-0.63,1.25-1.13,1.88-1.51c1.88-1,3.14-2.51,4.64-3.89
		c1.38-1.26,2.64-2.64,4.39-3.51c0.75-0.38,1.38-1.38,2.01-2.01l0.75-1.13v-2.89c-1-2.64-2.76-4.9-4.14-7.41
		C562.09,50.97,561.84,50.85,561.59,50.59z M559.96,61.89c-1.63,1.63-3.26,3.39-5.4,4.52c-1,0.5-1.63,1.26-2.38,2.13
		c-1.63,1.76-3.39,3.26-5.52,4.39c-1,0.5-1.88,1.26-2.89,1.51c-1.63,0.38-3.01,1.13-4.27,2.01c-1.38,1-3.01,1.51-4.64,1.88
		c-0.63-0.5-0.75-1-0.75-1.63v-0.13c0.13-2.26,0-4.02,0.25-6.65c0.38-3.77,0.63-5.77,1.13-9.54c0.25-2.01,0.63-3.14,0.88-5.15v-0.13
		c0-0.38-0.12-0.5-0.12-0.88c0-0.63,0-1.26,0-1.88c0-1.13,0-2.13,0-3.26v-0.75c0-1.51,0-3.01,0.5-4.39c0.12-0.25,0.12-0.75,0.12-1
		v-0.88c0.12-1.51,0.25-3.14,0.75-4.64c0.38-1.13,0.38-2.38,0.5-3.64c0.25-0.38,0.63-0.88,0.88-1.26c0.38-0.38,0.88-0.63,1.51-0.63
		c0.38,0,0.75,0.13,1,0.38c0.25,0.13,0.5,0.25,0.75,0.5c2.01,2.26,4.27,4.27,6.65,6.02c1.13,0.88,2.01,1.88,2.76,3.14
		c0.75,1.25,1.51,2.38,2.38,3.51c0.5,0.75,1,1.51,1.13,2.51c0,0.13,0.12,0.38,0.25,0.5c2.01,2.76,3.14,6.15,5.27,8.91
		c0,1,0.13,2.13,0.13,3.14C560.46,61.01,560.33,61.51,559.96,61.89z"/>
	<path class="st1" d="M623.22,85.11c0.75,0,1.51,0,2.76-0.75c0,0,0.5-0.5,0.88-1c1.38-2.26,3.26-4.14,5.15-6.02
		c1.51-1.63,3.14-3.14,4.64-4.77c0.63-0.63,1.13-1.38,1.76-2.13c1.38-1.76,2.26-3.89,3.51-5.65c1.51-2.13,2.51-4.27,3.39-6.65
		c0.88-2.51,1.76-4.52,2.64-7.53c0.38-1.26,0.63-2.13,0.63-3.26c0-0.63,0.12-1.25,0.12-1.88c0-0.63-0.12-1.25-0.38-1.76
		c-1.51-1.76-2.26-2.39-3.64-2.39c-0.5,0-1.38,0.13-2.13,0.25c-0.5,0.13-0.63,0.38-1.13,0.38c-1.51-0.13-2.38-0.5-3.89-0.5
		c-1.63,0-2.76,0.25-4.14,0.63c-0.63,0.25-1.38,0.25-2.01,0.25h-1.26c-1,0-1.76-0.63-2.13-1.51c0.25-1.38,1.13-2.51,1.51-3.89
		c0.5-1.63,1.25-3.26,2.26-4.64c0.5-0.75,1-1.51,1.51-2.38c1.51-2.76,3.64-5.02,6.02-7.15c0.75-0.63,1.38-1.25,2.01-2.01
		c0.25-0.38,0.38-0.75,0.5-1.13c-0.25-1.13-0.75-1.88-1.51-2.51c-0.5-0.13-1-0.25-1.51-0.25c-0.63,0-1.25,0.13-1.88,0.25
		c-0.38,0.25-0.88,0.63-1.25,1.13c-1.13,1.38-1.76,2.64-2.89,3.77c-1.26,1.25-1.38,1.51-2.64,3.01c-0.75,0.88-1.63,2.13-2.26,3.14
		c-0.5,1-1.13,1.63-1.63,2.38c-0.38,0.5-0.63,1-0.75,1.63c-0.75,2.64-2.01,4.39-3.14,7.28c-0.38,0.88-0.38,1.51-0.5,2.38
		c-0.25,0.75-0.63,1.38-0.63,2.01c0,0.25,0,0.38,0.12,0.63c0.25,0.25,0.38,0.5,0.63,0.63c1.25,0.63,2.13,1.63,3.77,2.01
		c0.75,0.25,1.38,0.25,2.01,0.25c1,0,1.88-0.13,2.89-0.13c2.01,0,3.51-0.63,5.77-0.63h0.63c1.25,0,2.13,0.63,3.14,1
		c0.75,0.25,1.51,1,1.51,2.01c0,1.76-1,2.64-1.51,4.14c-0.5,1.51-0.63,2.76-1.25,4.39c-0.75,1.76-1.88,2.76-2.38,4.27
		c-0.13,0.5-0.25,0.88-0.5,1.26c-1.13,1.38-1.76,3.01-3.01,4.27c-2.76,3.01-5.52,6.02-8.66,8.66c-1.38,1.26-2.64,2.64-3.77,3.89
		c-0.12,0.5-0.38,0.88-0.38,1.13v1C620.2,84.61,621.21,85.11,623.22,85.11z"/>
	<path class="st1" d="M703.8,30.26c0.75-0.13,1-0.75,1.13-1.38c0.12-0.75,0.12-1.51,0.12-2.13c-0.38-0.75-0.75-1.13-1.51-1.38
		c-1.13-0.38-2.01-0.38-3.01-0.38c-0.88,0-1.76,0.13-2.64,0.38c-1.51,0.5-3.14,0.75-4.64,0.75h-1.63c-1.63,0-3.26-0.13-4.89-0.13
		c-0.75,0-1.63-0.63-1.63-1.38s0.12-1.63,0.12-2.38v-0.75c0-0.5,0-1.13-0.38-1.76c-0.25-0.25-0.63-0.63-1-0.88
		c-0.25-0.13-0.38-0.25-0.63-0.25s-0.38,0.13-0.63,0.25c-1.38,0.88-2.01,1.88-2.01,3.01c0,0.38,0,0.88,0.25,1.38
		c0.12,0.38,0.25,0.88,0.38,1.26c-0.5,1.26-1.38,1.88-2.38,2.26c-3.26,0.13-6.28,0.25-9.41,0.38c-2.38,0.13-4.64,1.13-6.78,2.13
		c-0.63,0.38-1.13,1.26-1.13,2.13c0,0.25,0,0.5,0.12,0.75c0.25,0.75,1.26,1.38,2.13,1.38c0.25,0,0.38,0,0.63-0.13
		c1.38-0.5,2.64-1,3.89-1.51c1.13-0.13,2.26-0.13,3.26-0.5c1.38-0.5,2.64-0.63,4.02-0.63c1,0,2.01,0.13,3.01,0.13
		c0.5,0,0.88,0.25,1.13,0.75c0.12,0.25,0.38,0.5,0.63,0.88v1v4.9c0,1.76,0,3.51-0.63,5.27v0.38c-0.13,1.88,0,3.89-0.88,5.65
		c-0.38,0.63-0.25,1.51-0.38,2.26v0.5v0.75c0,0.25,0,0.5-0.13,0.63c-0.88,1.51-0.63,3.14-0.88,4.52c-0.63,1.26-1.13,2.01-1.51,3.39
		c-0.63,2.13,0,4.02-0.88,5.77c-0.25,0.5-0.25,1.13-0.25,1.76c0,1.63-0.12,3.14-0.12,4.77c0,0.88,0,1.88-0.25,2.76
		c-0.13,0.38-0.13,0.75-0.13,1.13c0,0.63,0.13,1.25,0.13,2.26c0,1.51,0,2.51,0.12,4.02c0,0.5,0.13,1,0.13,1.38
		c0,0.38-0.13,0.88-0.13,1.38c-0.12,0.63-0.63,1-0.63,1.63c0,0.75-0.12,1.38-0.12,2.01c0,0.88,0.12,1.76,0.25,2.89
		c0.12,0.88,0.38,1.38,1,2.01c0.75,0.75,1.25,1,2.26,1.13h0.25c0.38,0,0.75-0.25,1-0.5c0.88-1,1.63-1.51,1.88-2.89
		c0.13-0.63,0.13-1.13,0.13-1.63c0-1.51-0.38-2.76-0.5-4.52c-0.12-1.25-0.38-1.88-0.5-3.14v-0.5v-1v-4.27v-1.88
		c0-0.88-0.12-1.76-0.12-2.64c0-0.88,0.12-1.63,0.38-2.51c0.63-1.88,0.38-3.77,0.75-5.65c0-0.13,0.12-0.25,0.12-0.38
		c1.76-6.28,2.01-7.53,2.76-12.43v-0.38v-0.13c0.63-1.13,0.63-2.38,0.63-3.64c0-0.25,0.13-0.63,0.13-0.88c0-3.14,0.12-6.4,0.12-9.54
		v-5.15c0-0.88,0.38-1.51,1.13-2.13c1.26-0.25,2.64-0.63,4.02-1c0.25,0,0.5-0.13,0.75-0.13c0.88,0,2.01,0.25,3.14,0.25
		c1.88,0,2.89-0.38,4.89-0.38c1.63,0,3.01,0.63,4.77,0.63H703.8z"/>
	<path class="st1" d="M715.34,41.43c0.13,1.13,0.13,2.01,0.13,3.01c0,1.88-0.13,3.64-0.13,5.52v1.25v0.63
		c0.13,0.38,0.38,0.63,0.63,1c0.88,0.25,1.76,0.38,2.51,0.38c0.5,0,1,0,1.51-0.13c2.76-0.88,4.27-3.01,6.4-4.39
		c1.38-0.88,2.64-2.26,3.64-3.64c0.13-0.13,0.63-0.25,0.88-0.25c0.13,0.25,0.5,0.5,0.5,0.75c0.13,0.63,0.13,1.13,0.13,1.76
		c0,0.88-0.13,1.63-0.38,2.39c-0.75,2.13-0.63,4.39-0.88,6.4c-0.25,1.88-0.63,2.76-1,4.9c-0.25,1.38-0.5,2.51-0.75,3.89
		c-0.12,1.13-0.5,1.63-0.75,2.76c-0.5,2.01-0.75,3.39-1,5.02c-0.25,1.76-1,3.39-1.51,5.02c-0.12,0.25-0.38,0.63-0.38,0.88
		c-0.38,3.14-1.51,6.02-2.51,9.04c-0.38,1.25-0.5,2.38-0.5,3.64c0,0.88,0.38,1.63,1,2.13c0.38,0.25,0.75,0.5,1.13,0.5
		s0.75-0.13,1.13-0.38c1.13-1.25,1.63-2.64,2.26-4.39c0.63-2.01,0.63-3.26,0.88-5.27c0.13-0.75,0.13-1,0.25-1.76
		c0.13-1.26,0.13-2.64,0.13-3.39c0.63-1.63,1.38-2.64,1.63-3.89c0.25-1.26,0.63-2.38,0.88-3.64c0.25-1.25,0.63-2.38,1-3.64
		c0.63-1.63,0.88-3.26,1-5.02c0.12-1.88,1-3.51,1-5.4c0-0.88,0.13-1.13,0.38-1.88c0.12-0.63,0.5-1.13,0.5-1.76
		c0.12-1.38,0.63-2.89,0.88-4.27c0.38-1.51,0.13-3.01,0.88-4.52c0.25-0.5,0.25-1,0.25-1.51c0-1.51,0.38-3.01,0.88-4.52
		c0.75-2.51,1.13-4.02,2.26-6.28c0-0.88,0.63-2.38,0.63-3.01c0-0.75,0.5-1.51,0.75-2.26c0.13-0.5,0.13-0.88,0.13-1.38
		c0-0.63-0.13-1.38-0.63-1.76c-0.25-0.13-0.63-0.13-0.88-0.13c-0.12,0-0.25-0.13-0.38-0.13c-1.76,0-2.51,0.75-2.76,2.64
		c-0.25,2.13-1.51,4.9-2.64,7.15c-1.25,2.38-0.75,3.01-2.26,5.27c-0.5,0.75-3.39,2.26-4.02,2.89c-1.38,1.51-2.64,2.01-4.14,3.39
		c-0.5,0.5-1.25,1-1.63,1.38c-0.38,0.13-0.75,0.13-1,0.13c-0.5,0-0.88-0.13-1.26-0.63c-0.25-0.75-0.75-1.63-1-2.64v-0.5
		c0-0.75,0.13-1.25,0.13-2.01c0-3.26-0.25-6.53-0.25-9.92V28.5v-1.26c0-0.5-0.13-0.88-0.25-1.38c-0.38-0.25-0.75-0.63-1.13-0.88
		c-1.63,0.13-2.89,1-3.26,2.64c-0.25,1.38-0.38,2.64-0.38,3.77c0,2.26,0.38,4.14,0.63,6.9C714.72,39.55,715.22,40.18,715.34,41.43z"
		/>
	<path class="st1" d="M755,91.14h2.64h1.38c1.13,0,2.13-0.63,3.26-0.75c0.12,0,0.25-0.13,0.38-0.13l1.88-0.25
		c0.75-0.13,1.51-0.38,2.26-0.5s1.51-0.13,2.38-0.13c0.63,0,1.25,0,1.88-0.13c1.76-0.25,3.51-0.63,5.15-1
		c0.25,0,0.63-0.75,0.63-1.13c0-0.25,0.13-0.63,0.13-0.88c0-1.51-1.13-2.38-2.38-2.51c-0.38,0-0.88-0.13-1.26-0.13
		c-0.75,0-1.38,0.13-2.01,0.38s-1.13,0.63-1.76,0.63l-2.76,0.25c-1,0.13-2.01,0.25-2.89,0.63c-0.75,0.25-1.51,0.13-2.26,0.25
		c-0.63,0.13-1.13,0.5-1.76,0.5c-0.13,0-0.38-0.13-0.5-0.13c-0.12-0.25-0.5-0.38-0.5-0.63c-0.12-0.63-0.12-1.13-0.12-1.76
		c0-0.88,0-1.63,0.38-2.39c0.63-1.38,0.38-2.76,1-4.14c0.63-1.25,0.75-2.01,1-3.39c0.38-2.39,0.63-4.39,0.75-6.28
		c0-0.75,0.38-1.88,0.63-2.51c0-0.88,0.12-1.25,0.12-2.13v-1.88v-1c0-0.38,0-0.63,0.13-0.88c0.75-1.63,0.75-3.26,0.88-5.02
		c0.25-1.88,0-3.89,0.75-5.65c0.25-0.75,0.12-1.51,0.25-2.26c0.12-0.63,0-1.26,0.25-1.88c0.38-1,0.5-2.13,0.5-3.26
		c0.13-1.76,0-3.51,0.38-5.15c0.25-1.26,0.38-2.51,0.5-3.77c0.12-1.13,0.12-2.13,0.12-3.26v-0.25c0-1,0.63-1.88,0.75-2.89
		c0.25-1.88,0.5-3.39,1-5.52c0.63-2.89,0.88-4.9,1.88-7.28v-0.5v-1c-0.5-1-1.13-1.88-2.38-2.13h-0.13c-0.75,0-1,0.88-1.51,1.51
		c-0.75,2.26-1.13,4.14-1.63,6.78v0.25v0.5v0.25c-0.25,1.63-0.63,2.51-1,4.14c-0.5,2.13-0.38,3.77-1,5.52
		c-0.38,1.13-0.63,2.13-0.63,3.26v2.51c0,2.89-0.13,5.77-0.75,8.66c-0.25,0.88-0.12,1.88-0.25,2.89v0.75c0,0.25,0,0.38-0.12,0.63
		c-0.75,1.63-0.63,3.39-0.75,5.15c-0.13,1.76-0.25,3.26-0.63,5.02c-0.38,1.88-0.25,3.77-0.38,5.65c0,0.63-0.25,1.26-0.5,1.88
		c-0.25,0.75-0.38,1.51-0.38,2.26c0,1.38-0.13,2.76-0.13,4.14c0,2.26-0.5,4.39-1.25,6.53c-1.26,3.77-2.89,6.65-3.39,11.05v0.25
		C753.25,89.88,754,90.76,755,91.14z"/>
	<path class="st1" d="M827.68,22.48c-2.13,0.13-4.39,0.63-7.15,0.63c-1.26,0-2.26-0.38-3.26-0.63c-0.38-0.13-0.75-0.25-1.13-0.5
		c-0.13-0.88-0.5-1.63-0.63-2.38c-0.12-0.5-1-1-1.51-0.88c-0.25,0.13-0.63,0.25-0.88,0.38c-1,0.63-1.88,1.26-2.38,2.26
		c-0.5,0.75-0.75,1.76-1.13,2.76c-0.38,1-0.88,1.63-1.38,2.76c-0.38,0.88-0.88,1.63-0.88,2.38c0,1.13-0.13,2.26-0.5,3.26
		c-0.88,2.01-1.38,4.14-1.51,6.4c0,0.63-0.5,1.13-0.63,1.76c-0.5,2.13-0.5,3.89-1.26,6.28s-1.76,3.89-2.51,5.77
		c-0.75,2.01-1.76,4.02-2.76,6.4c-1.51,1-3.01,1.88-3.77,3.51c0.38,1,0.88,2.01,1.13,2.76c-0.25,1-0.38,1.76-0.5,2.51
		c-0.13,0.63,0,1.38-0.25,1.88c-1.13,2.76-1.26,5.27-1.88,8.66c-0.38,2.01-0.75,3.77-1,5.4c-0.63,2.13-1.38,4.02-2.26,5.9
		c-0.38,0.75-0.38,1.51-0.13,2.26c0.25,0.63,0.75,1,1.38,1.25c0.38,0,0.63,0.13,1,0.13c1.88,0,3.64-0.5,5.9-0.88
		c1.51-0.25,2.38-0.38,3.64-0.75c1.13-0.38,2.51-0.38,3.64-1c0.38-0.25,0.88-0.25,1.38-0.25c0.63,0,1.13,0.13,1.76,0.13
		c1.88,0,3.64-0.38,5.52-1.38c1.63-0.88,5.4-0.5,6.28-1.76c0.63-0.75,0.38-2.51-0.12-3.14c-0.25-0.25-1.25-1.26-1.63-1.13
		c-1.13,0.5-2.26,1.13-3.39,1.63c-0.88,0-1.63,0-2.38,0.25c-1.88,0.5-3.77,0.25-5.52,1c-1.88,0.88-4.02,0.5-5.9,1.38
		c-0.63,0.25-1.25,0.5-1.88,0.5c-0.75,0-1.63-0.25-2.38-0.38c-0.5-0.13-1-0.88-1-1.38s0.12-1,0.25-1.38c0.5-1,0.75-2.13,0.75-3.26
		c0.13-1.88,0-3.64,0.75-5.52c0.38-1,0.13-2.13,0.5-3.26c0.38-1.13,0.63-2.38,1-3.64c0.25-1,0.75-2.13,1-3.01
		c0.63-0.88,1.25-1.51,2.01-1.88c1.26-0.25,2.26-0.38,3.26-0.75c0.75-0.25,1.63-0.38,2.38-0.38c1.13,0,2.13-0.25,3.26-0.13
		c0.25,0,0.38,0.13,0.63,0.13c2.38,0,4.52-0.75,6.78-1.25c0.88-0.25,1.76-0.63,2.64-1.13c0.75-0.38,1.13-1,1.25-1.88
		c0-0.5,0.12-0.88,0-1.38c0-0.25-0.25-0.5-0.38-0.75c-0.25-0.13-0.63-0.25-0.88-0.25h-2.26c-1.38,0.63-2.76,1.26-3.51,1.63
		c-1.51,0.38-2.76,0.5-3.89,0.5c-0.38,0-0.63-0.13-1-0.13h-0.38h-0.13h-2.26c-0.88,0-1.88,0.13-2.76,0.5
		c-0.12,0-0.25-0.13-0.38-0.13c-0.88-0.38-1.13-1-1-2.13c0.63-1.38,1.26-3.01,2.01-4.52c0.75-1.76,1.38-3.51,1.76-5.4
		c0.25-1.63,1-3.14,1.26-4.9c0.25-1.26,1-2.38,1.38-3.39c0.13-1,0-1.76,0.25-2.51c0.75-2.76,1.76-5.4,3.26-7.78
		c0.25-0.38,0.75-0.63,1.13-0.88c1.13-0.25,2.38-0.38,3.51-0.38h1.63h0.12c1.38,0,2.51-0.63,4.14-0.63c1.76,0,3.01,0.75,4.52,0.75
		c0.13,0,0.38-0.13,0.5-0.13c0.88-0.13,1.51-0.63,1.76-1.38c0.25-0.63,0.12-1.26-0.25-1.76C829.69,23.23,828.93,22.73,827.68,22.48z
		"/>
	<path class="st1" d="M850.65,83.35c1.38-2.26,3.26-4.14,5.15-6.02c1.51-1.63,3.14-3.14,4.64-4.77c0.63-0.63,1.13-1.38,1.76-2.13
		c1.38-1.76,2.26-3.89,3.51-5.65c1.51-2.13,2.51-4.27,3.39-6.65c0.88-2.51,1.76-4.52,2.64-7.53c0.38-1.26,0.63-2.13,0.63-3.26
		c0-0.63,0.12-1.25,0.12-1.88c0-0.63-0.12-1.25-0.38-1.76c-1.51-1.76-2.26-2.39-3.64-2.39c-0.5,0-1.38,0.13-2.13,0.25
		c-0.5,0.13-0.63,0.38-1.13,0.38c-1.51-0.13-2.38-0.5-3.89-0.5c-1.63,0-2.76,0.25-4.14,0.63c-0.63,0.25-1.38,0.25-2.01,0.25h-1.26
		c-1,0-1.76-0.63-2.13-1.51c0.25-1.38,1.13-2.51,1.51-3.89c0.5-1.63,1.25-3.26,2.26-4.64c0.5-0.75,1-1.51,1.51-2.38
		c1.51-2.76,3.64-5.02,6.02-7.15c0.75-0.63,1.38-1.25,2.01-2.01c0.25-0.38,0.38-0.75,0.5-1.13c-0.25-1.13-0.75-1.88-1.51-2.51
		c-0.5-0.13-1-0.25-1.51-0.25c-0.63,0-1.25,0.13-1.88,0.25c-0.38,0.25-0.88,0.63-1.25,1.13c-1.13,1.38-1.76,2.64-2.89,3.77
		c-1.26,1.25-1.38,1.51-2.64,3.01c-0.75,0.88-1.63,2.13-2.26,3.14c-0.5,1-1.13,1.63-1.63,2.38c-0.38,0.5-0.63,1-0.75,1.63
		c-0.75,2.64-2.01,4.39-3.14,7.28c-0.38,0.88-0.38,1.51-0.5,2.38c-0.25,0.75-0.63,1.38-0.63,2.01c0,0.25,0,0.38,0.12,0.63
		c0.25,0.25,0.38,0.5,0.63,0.63c1.25,0.63,2.13,1.63,3.77,2.01c0.75,0.25,1.38,0.25,2.01,0.25c1,0,1.88-0.13,2.89-0.13
		c2.01,0,3.51-0.63,5.77-0.63h0.63c1.25,0,2.13,0.63,3.14,1c0.75,0.25,1.51,1,1.51,2.01c0,1.76-1,2.64-1.51,4.14
		c-0.5,1.51-0.63,2.76-1.25,4.39c-0.75,1.76-1.88,2.76-2.38,4.27c-0.13,0.5-0.25,0.88-0.5,1.26c-1.13,1.38-1.76,3.01-3.01,4.27
		c-2.76,3.01-5.52,6.02-8.66,8.66c-1.38,1.26-2.64,2.64-3.77,3.89c-0.12,0.5-0.38,0.88-0.38,1.13v1c0,2.01,1,2.51,3.01,2.51
		c0.75,0,1.51,0,2.76-0.75C849.77,84.36,850.27,83.86,850.65,83.35z"/>
	<path class="st1" d="M347.92,516.1h-0.22c-0.65,0.11-1.19,0.43-1.84,0.54s-1.3,0.22-1.95,0.22c-0.87,0-1.73-0.11-2.49-0.54
		c-0.54-0.33-1.41-0.22-2.06-0.33h-0.54h-0.98c-0.33,0-0.54,0-0.87-0.11c-1.41-0.54-2.93-0.54-4.44-0.54c-1.73,0-3.58,0-5.31-0.11
		h-1.95c-1.08,0-2.28,0-3.36,0.22c-0.54,0.33-1.19,0.54-1.73,0.87c-0.65,0.43-0.98,1.08-0.98,1.84v0.33v0.11
		c0,0.54-0.76,0.65-0.76,1.19V520c-0.11,0.22-0.22,0.33-0.22,0.54c0,0.33,0.22,0.76,0.22,1.19c0,0.22-0.11,0.43-0.22,0.65
		s-0.22,0.43-0.22,0.65c0,0.33,0.11,0.65,0.11,0.98c0.11,1.73,0.11,3.47,0.11,5.2v7.05c0,0.76-0.11,1.63-0.33,2.38
		c-0.33,0.98-0.43,1.84-0.43,2.82c0,1.52,0,2.93-0.11,4.44c0,0.54,0,1.19-0.22,1.63c-0.54,1.19-0.43,2.38-0.54,3.58
		c0,0.98,0,1.95-0.33,2.82c-0.43,1.3-0.43,2.71-0.54,4.01s-0.65,2.6-0.65,4.01c0,1.19-0.54,2.17-0.76,3.58
		c-0.43,2.17-0.98,3.69-1.08,5.64c0,0.43-0.22,0.76-0.33,1.19c-0.11,0.54-0.33,0.98-0.33,1.52c-0.11,1.19-0.11,2.38-0.11,3.47
		c0,0.87-0.22,1.63-0.22,2.49c0,0.54,0.11,1.08,0.33,1.63c0.43,0.98,1.41,1.08,2.17,1.41c0.65,0.11,1.41,0.22,2.06,0.22
		c1.08,0,2.06-0.11,3.14-0.11c0.43,0,0.87,0,1.19-0.22c0.87-0.43,1.84-0.54,2.82-0.65s1.73-0.54,2.71-0.76
		c2.38-0.43,4.55-1.52,6.72-2.71c0.54-0.33,0.98-0.76,0.98-1.41v-0.22c0-0.11,0-0.33-0.11-0.43c-0.43-0.65-0.87-0.98-1.41-0.98
		c-0.22,0-0.43,0-0.65,0.11c-0.54,0.22-0.98,0.43-1.52,0.54c-2.17,0.22-4.01,1.52-6.61,1.95c-0.98,0.11-1.84,0.22-2.6,0.22
		c-1.08,0-1.95-0.11-3.14-0.11c-0.22,0-0.43-0.22-0.87-0.33c-0.22-0.33-0.54-0.87-0.87-1.3c0-1.63-0.11-3.25-0.11-4.88
		c0-0.65,0-1.52,0.22-2.06c0.43-0.98,0.43-1.95,0.65-3.14c0.22-1.3,0.33-2.06,0.65-3.36c0.33-1.41,0.76-2.17,0.98-3.47v-1.84
		c0-0.65,0-1.41,0.11-2.06c0.98-0.87,1.73-1.3,2.6-1.3c2.06-0.11,4.01-0.87,5.85-1.63l2.6-0.98c1.08-0.54,2.17-0.98,3.47-0.98
		c0.76,0,1.41-0.43,1.52-1.19v-0.22c0-0.76-0.54-1.52-1.19-1.63h-0.43h-0.98c-0.76,0-1.52,0-2.28,0.33
		c-2.38,0.87-4.88,1.63-7.26,2.49l-1.73,0.43h-0.22c-0.33,0-0.76-0.33-1.08-0.43c-0.11-0.54-0.11-1.08-0.11-1.63
		c0-0.76,0.33-1.52,0.33-2.17c0-0.43,0.22-0.76,0.33-1.19c0.33-1.95,0-2.93,0.54-4.34c0.33-0.76,0.43-1.63,0.43-2.38
		c0-0.65-0.11-1.41-0.11-2.06c0-2.28,0.11-4.66,0.22-6.94c0-0.43,0-0.87,0.11-1.19c0.43-0.98,0.54-1.95,0.54-2.93
		c0-0.87-0.11-1.84-0.11-2.71c-0.11-0.43-0.33-0.76-0.43-1.19c-0.11-0.22-0.11-0.54-0.11-0.76c0-0.43,0.11-0.76,0.43-1.08
		c0.54-0.22,1.19-0.54,1.95-0.87c1.3,0,2.82-0.11,4.34-0.11c0.87,0,1.63-0.11,2.38-0.43l0.98-0.11c0.33,0,0.65,0,0.98,0.11
		c0.65,0.22,1.41,0.33,2.06,0.33c1.63,0,3.25,0,4.88,0.11c0.54,0,1.19,0,1.63,0.22c1.19,0.65,2.71,0.43,3.9,0.98
		c0.22,0.11,0.54,0.11,0.76,0.11c0.76-0.33,1.63-0.54,2.17-1.19c0.54-0.76,0.98-1.52,0.98-2.49
		C348.79,516.32,348.36,516.1,347.92,516.1z"/>
	<path class="st1" d="M390.09,521.63c0-0.43,0.11-0.87,0.22-1.41c0.11-0.43,0.11-0.76,0.22-1.08c-0.32-0.76-0.54-1.41-1.08-1.95
		c-0.32-0.11-0.65-0.22-1.08-0.33c-0.11,0-0.32-0.11-0.43-0.11c-0.65,0-1.3,0.43-1.62,1.08c-0.22,0.33-0.33,0.76-0.33,1.19V520
		c0,0.33,0,0.65,0.11,0.98c0.43,1.19,0.54,2.49,0.54,3.69v1.19v1.08v2.82c0,1.08-0.11,1.95-0.32,2.93c-0.54,2.6-1.19,5.09-1.19,7.8
		v1.19c0,1.19-0.11,2.38-0.32,3.58c-0.33,1.84-0.87,3.58-1.41,5.42c-0.11,0.54-0.54,0.98-1.08,1.19c-0.97-0.65-1.19-0.76-1.3-1.41
		c-0.22-1.63-0.54-3.36-1.3-4.77c-1.41-2.93-1.84-6.18-3.47-9c-0.11-0.11-0.11-0.33-0.11-0.43c0-1.08-0.65-2.06-0.87-3.14
		c-0.22-0.98-0.22-1.95-0.54-2.82c-0.32-0.98-0.11-2.06-0.65-3.25c-0.43-0.98-1.19-1.19-1.84-2.06s-0.43-2.06-1.52-2.28
		c-0.33-0.11-0.65-0.11-0.98-0.11c-1.08,0-2.06,0.43-2.6,1.52l-2.6,5.53c-0.54,1.19-1.08,2.49-1.41,3.79
		c-0.98,3.25-2.6,6.29-2.71,9.76c0,0.22-0.32,0.54-0.32,0.76c-0.33,1.95-1.08,3.9-1.08,5.85v1.19c0,2.38-0.98,4.66-0.98,7.05
		c-0.76,1.19-0.54,2.6-0.65,3.9c-0.11,1.84,0.11,3.9-0.65,5.75c-0.11,0.33-0.11,0.76-0.11,1.19c0,2.17-0.11,4.34-0.87,6.4
		c0,0.11-0.11,0.22-0.11,0.33c0,0.76,0.87,1.73,1.63,1.84h0.54h1.08c0.76-0.11,1.63-0.87,1.63-1.63c0.11-1.95,0.11-3.69,0.22-5.96
		c0.11-0.22,0.32-0.65,0.54-1.3c0-1.52,0.11-3.04,0.11-4.66v-1.19c0-0.98,0-1.95,0.54-2.93c0.22-0.43,0.22-1.08,0.22-1.63
		c0-1.19,0.11-2.38,0.11-3.47c0.32-0.65,0.54-1.19,0.76-1.73c0-0.54,0-1.08,0-1.63c0.11-0.76,0-1.63,0.11-2.38
		c0.22-0.65,0.43-1.19,0.65-1.84c0.11-0.43,0.32-0.87,0.43-1.3c0.11-0.54,0.32-0.98,0.32-1.52c0-1.19,0.43-2.38,0.65-3.58
		s0.65-2.38,1.08-3.58c0.76-2.06,1.08-4.23,2.06-6.07c0.22,0,0.54-0.11,0.76-0.11h0.11c0.32,0.22,0.65,0.54,0.87,0.87
		s0.32,0.65,0.43,1.08l1.62,5.85c0.65,2.06,1.41,4.12,2.06,6.18c0.43,1.41,0.97,2.93,1.62,4.23c0.11,0.22,0.11,0.43,0.22,0.76
		c0.11,1.08,0.22,2.17,0.22,2.93c0.54,1.3,0.98,2.28,1.41,3.14c0.11,1.63,0.11,3.14,0.22,4.66v1.08v1.19c0,0.87,0,1.63,0.32,2.49
		c0.43,1.41,0.22,2.93,0.76,4.66c0.22,0.65,0.54,1.19,1.19,1.3c0.22,0,0.54,0.11,0.76,0.11c0.87,0,1.41-0.33,2.28-0.76
		c0.54-0.22,0.65-0.76,0.87-1.3c0.22-0.43,0.22-0.87,0.22-1.3v-0.65v-0.54c0-0.54,0.22-1.08,0.33-1.63
		c0.54-1.95,0.87-3.58,1.41-5.85c0.43-1.73,0.54-2.71,0.98-4.44c0.32-1.19,0.43-2.06,0.76-3.04c0.33-1.08,0.43-2.17,0.54-3.25
		c0-0.43,0-0.87,0.22-1.19c0.65-1.08,0.54-2.38,0.65-3.58c0.11-1.19,0.22-2.38,0.22-3.25c0.32-0.87,0.43-1.41,0.54-1.73
		c0-1.95,0.11-3.79,0.11-5.53c0-1.84,0.65-3.36,0.65-5.53c0-1.3-0.22-2.28-0.33-3.69C390.31,523.26,390.09,522.39,390.09,521.63z"/>
	<path class="st1" d="M440.39,532.79c-0.98-1.3-2.06-2.38-3.36-3.14c-1.84-1.08-3.58-2.38-5.53-3.36c-3.04-1.52-6.18-2.93-9.21-4.34
		c-2.6-1.19-5.2-2.28-8.13-2.49c-0.54,0-0.98-0.33-1.52-0.43c-1.08-0.33-2.06-0.76-3.14-0.98h-0.43c-0.65,0-1.08,0.43-1.73,0.76
		c-0.43,0.22-0.65,0.54-0.65,0.98c0,1.52,0.65,2.6,0.65,3.9c0,0.33-0.11,0.87-0.11,1.41c-0.11,3.79,0,7.15-0.22,11.71
		c0,0.65-0.43,0.98-0.43,1.63c-0.22,2.82-0.22,4.55-0.33,7.37c-0.11,2.49-0.11,4.34-0.11,6.5c0,0.43,0,0.87-0.11,1.19
		c-0.43,1.08-0.43,2.17-0.43,3.25v3.79v1.84c0,1.52,0,3.14-0.32,4.55c-0.43,1.63-0.43,3.14-0.54,4.77c0,0.98-0.22,1.95-0.54,2.82
		c-0.43,1.08-0.76,2.28-1.08,3.47c0,0.22-0.11,0.43-0.11,0.65c0,0.65,0.33,1.19,0.76,1.63c0.54,0.65,1.41,0.98,1.73,1.84
		c0.11,0.43,0,0.98,0.22,1.52c0.11,0.33,0.32,0.76,0.65,0.98c0.32,0.33,0.76,0.43,1.19,0.43c0.65,0,1.3-0.33,1.84-0.65
		c1.08-0.76,0.87-2.06,1.73-3.04c0.65-0.76,1.62-0.87,2.17-1.41c0.97-0.98,1.95-1.95,2.71-3.04c0.87-1.3,1.73-2.49,2.93-3.36
		c1.41-0.98,2.38-2.28,3.47-3.47c0.87-0.87,1.62-1.73,2.38-2.71c1.73-2.28,3.58-4.44,5.64-6.4c0.32-0.33,0.43-0.76,0.65-1.08
		c1.08-1.3,1.41-2.6,2.49-4.12c0.76-1.08,1.63-1.41,2.28-2.6c2.06-3.58,3.04-6.4,4.55-9.43c0.43-1.63,1.08-3.14,1.08-4.88v-1.84
		c0-0.54,0-1.19-0.11-1.84C441.14,534.2,440.71,533.45,440.39,532.79z M434.86,545.69c-0.87,1.84-1.84,3.25-3.04,5.31
		c-2.17,3.58-3.69,5.85-5.53,8.89c-0.65,1.08-1.52,2.06-2.38,2.93c-1.84,1.84-3.69,3.58-5.1,5.75c-0.43,0.65-1.08,1.19-1.62,1.84
		c-0.76,0.76-1.41,1.63-2.06,2.49c-1.73,2.28-3.69,4.34-5.74,6.18h-1.08c-0.11-0.33-0.54-0.65-0.54-0.98v-0.54
		c0-0.76,0.22-1.52,0.43-2.28c0.33-0.76,0.43-1.52,0.43-2.38v-0.65c0-1.63,0.11-3.36,0.65-4.99c0.22-0.76,0.22-1.63,0.22-2.38
		s-0.11-1.41-0.11-2.17c0-2.06,0.22-4.23,0.22-6.29v-0.54c0-0.54-0.11-0.98-0.11-1.52c0-1.73,0.11-3.25,0.11-5.31v-1.3v-0.87
		c0.11-1.63,0.22-2.38,0.43-4.01c0.11-0.76,0.22-1.19,0.22-1.95c0.11-3.04,0.11-5.2,0.11-7.8c0-1.73,0.11-3.58,0.11-4.99
		c0.32-1.19,0.54-2.17,0.87-3.04c0.22-0.54,0.54-0.98,1.19-1.3c0.22,0,0.54-0.11,0.98-0.11h0.11c1.41,0,2.93,0.76,4.34,0.87
		c0.65,0,1.19,0.43,1.84,0.76c0.97,0.54,1.84,0.98,2.82,1.52c0.97,0.54,1.84,1.08,2.93,1.41c1.19,0.33,2.17,0.98,3.25,1.63
		c1.52,0.87,3.04,1.84,4.55,2.71c0.87,0.43,1.52,1.19,2.17,1.73c0.43,0.87,0.65,1.63,0.98,2.17c0.11,0.76,0.22,1.52,0.22,2.17
		C436.7,541.14,435.94,543.42,434.86,545.69z"/>
	<path class="st1" d="M474.21,537.89c-0.43,0-1.19,0.11-1.84,0.22c-0.43,0.11-0.54,0.33-0.97,0.33c-1.3-0.11-2.06-0.43-3.36-0.43
		c-1.41,0-2.38,0.22-3.58,0.54c-0.54,0.22-1.19,0.22-1.73,0.22h-1.08c-0.87,0-1.52-0.54-1.84-1.3c0.22-1.19,0.98-2.17,1.3-3.36
		c0.43-1.41,1.08-2.82,1.95-4.01c0.43-0.65,0.87-1.3,1.3-2.06c1.3-2.38,3.14-4.34,5.2-6.18c0.65-0.54,1.19-1.08,1.73-1.73
		c0.22-0.33,0.33-0.65,0.43-0.98c-0.22-0.98-0.65-1.63-1.3-2.17c-0.43-0.11-0.87-0.22-1.3-0.22c-0.54,0-1.08,0.11-1.62,0.22
		c-0.33,0.22-0.76,0.54-1.08,0.98c-0.98,1.19-1.52,2.28-2.49,3.25c-1.08,1.08-1.19,1.3-2.28,2.6c-0.65,0.76-1.41,1.84-1.95,2.71
		c-0.43,0.87-0.98,1.41-1.41,2.06c-0.32,0.43-0.54,0.87-0.65,1.41c-0.65,2.28-1.73,3.79-2.71,6.29c-0.33,0.76-0.33,1.3-0.43,2.06
		c-0.22,0.65-0.54,1.19-0.54,1.73c0,0.22,0,0.33,0.11,0.54c0.22,0.22,0.32,0.43,0.54,0.54c1.08,0.54,1.84,1.41,3.25,1.73
		c0.65,0.22,1.19,0.22,1.73,0.22c0.87,0,1.63-0.11,2.49-0.11c1.73,0,3.04-0.54,4.99-0.54h0.54c1.08,0,1.84,0.54,2.71,0.87
		c0.65,0.22,1.3,0.87,1.3,1.73c0,1.52-0.87,2.28-1.3,3.58s-0.54,2.38-1.08,3.79c-0.65,1.52-1.63,2.38-2.06,3.69
		c-0.11,0.43-0.22,0.76-0.43,1.08c-0.97,1.19-1.52,2.6-2.6,3.69c-2.38,2.6-4.77,5.2-7.48,7.48c-1.19,1.08-2.28,2.28-3.25,3.36
		c-0.11,0.43-0.33,0.76-0.33,0.98v0.87c0,1.73,0.87,2.17,2.6,2.17c0.65,0,1.3,0,2.38-0.65c0,0,0.43-0.43,0.76-0.87
		c1.19-1.95,2.82-3.58,4.44-5.2c1.3-1.41,2.71-2.71,4.01-4.12c0.54-0.54,0.97-1.19,1.52-1.84c1.19-1.52,1.95-3.36,3.04-4.88
		c1.3-1.84,2.17-3.69,2.93-5.75c0.76-2.17,1.52-3.9,2.28-6.5c0.32-1.08,0.54-1.84,0.54-2.82c0-0.54,0.11-1.08,0.11-1.63
		s-0.11-1.08-0.33-1.52C476.05,538.43,475.4,537.89,474.21,537.89z"/>
	<path class="st1" d="M557.34,517.84c-0.33-1.63-0.43-2.6-0.87-4.23c-0.11-0.33-0.43-0.54-0.65-0.76c-0.33-0.33-0.76-0.33-1.08-0.11
		s-0.76,0.33-0.98,0.65c-1.08,1.95-2.06,3.9-2.71,5.96c-1.08,3.36-2.38,5.96-3.9,9.76c-0.76,2.06-1.19,3.25-1.95,5.31
		c-0.33,0.76-0.43,1.3-0.76,1.95c-0.43,0.87-0.98,1.73-1.19,2.6c-0.43,1.63-1.52,2.82-2.38,4.12c-0.33-0.11-0.54-0.22-0.76-0.43
		c-1.3-1.19-2.6-2.38-3.79-3.69c-0.33-0.43-0.54-0.87-0.76-1.41c-0.22-0.33-0.11-0.87-0.33-1.19c-1.63-2.6-3.36-5.31-4.88-8.02
		c-0.43-0.87-1.08-1.52-1.84-2.06s-1.63-1.08-2.49-1.52c-0.65-0.33-1.3-0.22-1.84,0.54c0,0.43-0.11,1.08,0.11,1.52
		c0.65,1.73,0.65,3.47,0.76,5.2c0,0.98-0.11,1.95,0.22,2.82c0.33,1.08,0.43,2.17,0.43,3.25c0,1.41,0,2.71,0.11,4.12
		c0,1.08,0,2.06,0.43,3.14c0.22,0.43,0.22,1.08,0.22,1.63c0.11,5.96,0.11,12.03,0.22,17.99c0,1.08,0.43,1.95,0.43,3.25
		c0,1.19-0.54,1.95-0.54,3.04c0,0.43,0,0.87,0.11,1.3c0,0.22,0.22,0.54,0.33,0.76c0.65,0.43,1.3,1.19,2.17,0.98s1.41-1.08,1.41-1.84
		c0-2.82,0-5.2-0.11-8.56c0-0.43,0-0.76-0.11-1.19c-0.22-1.19-0.54-1.95-0.54-3.04v-0.87v-0.87c-0.11-1.19-0.11-2.49-0.43-3.69
		c-0.22-0.98-0.33-1.84-0.33-2.82c-0.11-4.34-0.11-8.67-0.22-13.01c0-0.98-0.11-1.84-0.22-2.82c0.54-0.33,0.54-0.43,1.41-0.22
		c0.22,0.33,0.54,0.65,0.76,0.98c0.76,1.63,1.84,3.04,3.14,4.23c0.76,0.76,1.41,1.52,1.95,2.49c1.08,1.73,1.63,3.47,3.36,4.99
		c0.54,0.54,1.41,0.33,1.95-0.11c0.76-0.65,1.52-1.3,1.95-2.06c0.98-1.63,2.17-3.14,3.04-4.88c0.98-2.06,1.52-4.34,2.93-6.29
		c0.22-0.33,0.22-0.76,0.43-1.08c0.65-1.41,0.98-2.82,1.3-4.23c0.22-1.08,0.87-2.06,1.52-2.93c0.22,0,0.54,0,0.87-0.11
		c0.11,0.33,0.43,0.65,0.43,0.98c0.11,0.98,0.11,2.06,0.11,3.14c0,0.22-0.11,0.33-0.11,0.54c0,4.12-0.11,8.24-0.11,12.36
		c0,1.41-0.54,2.28-0.65,3.47v2.71v2.28c0,1.52,0.11,2.93,0.43,4.34c0,2.93,0.11,5.85,0.11,8.78v1.41c0,0.43-0.11,0.98-0.22,1.3
		c-0.33,0.87-0.33,1.84-0.33,2.82c-0.11,1.95-0.11,3.69-0.22,5.64c0,0.87-0.11,1.63-0.33,2.38s-0.33,1.52-0.33,2.28
		c0,1.08,0,2.38,0.98,3.25c0.54,0.54,1.3-0.54,1.95-0.54c0.43,0,0.76-0.22,1.08-0.65v-2.82c-0.11-1.41-0.22-2.71-0.22-4.12
		c0-0.76,0-1.63,0.11-2.38c0.11-2.17,0.43-3.9,0.65-6.4c0.11-1.41,0.11-2.38,0.11-3.58c0-0.33-0.11-0.65-0.11-0.98
		c0-0.54,0.11-0.87,0-1.52c-0.11-1.19-0.22-1.95-0.11-3.25c0.11-1.41,0.22-2.38,0.22-3.58c0-3.69,0.11-7.37,0.11-11.06
		c0-1.08,0-2.17,0.11-3.25c0-0.43,0.11-0.87,0.22-1.19c0.33-0.65,0.33-1.41,0.33-2.06v-3.25v-2.17c0.11-2.17,0.22-4.23,0.22-6.4
		c0-1.63,0-3.36-0.11-4.99C557.56,519.25,557.45,518.59,557.34,517.84z"/>
	<path class="st1" d="M594.2,534.1c-0.11-3.04-1.41-5.75-2.6-8.46c-0.43-0.98-1.19-2.06-2.38-2.06c-0.98,0-1.52,0.98-1.52,1.95
		c0,0.33,0,0.76,0.11,1.41c0.43,0.54,1.08,1.08,1.41,1.95c0.87,2.38,1.08,4.23,1.73,6.29c0,1.63,0.11,3.04,0.11,4.66v2.06
		c0,0.98,0,2.06-0.22,3.04c-0.33,1.73-0.43,3.47-0.98,5.2s-0.76,3.36-1.19,5.09s-0.98,3.36-1.73,4.99
		c-1.08,2.06-2.06,4.23-3.04,6.29c-0.98,2.28-2.17,3.9-3.69,6.29c-1.3,1.95-2.06,3.47-3.58,4.88c-0.43,0.43-0.87,1.08-1.63,1.3
		h-0.22c-0.33,0-0.65-0.22-0.87-0.54c-0.43-0.54-0.54-1.3-0.87-1.84c0-2.06-0.11-4.12-0.11-6.18c0-0.22-0.11-0.43-0.11-0.65
		c0-1.19,0.11-2.49,0.11-3.69v-0.87v-0.76c0-0.98,0.33-1.84,0.54-2.93c0.11-0.43,0.11-0.76,0.22-1.19c0.22-1.3-0.11-2.17,0.43-3.14
		c0.54-1.08,0.33-2.38,0.87-3.58s0.54-2.6,1.08-3.9c0.54-1.41,0.65-2.93,0.98-4.34c0.76-3.14,2.17-6.07,3.47-9.11
		c0.11-0.33,0.43-0.65,0.65-0.98c0.98-1.63,2.06-3.25,3.04-4.88c0.43-0.54,0.87-1.19,0.87-2.06v-0.22
		c-0.22-0.22-0.43-0.65-0.65-0.98c-0.22-0.22-0.33-0.22-0.54-0.22s-0.43,0.11-0.65,0.11c-0.65,0.87-1.3,1.73-1.84,2.6
		c-0.33,0.54-0.65,1.3-0.98,1.84s-0.65,1.08-1.08,1.63c-2.17,3.14-2.49,3.79-3.79,7.59c-0.22,0.54-0.43,0.98-0.54,1.52
		c-0.43,1.3-0.65,2.6-1.19,3.9c-0.54,1.41-0.54,2.6-0.98,4.34c-0.33,1.52-0.33,2.71-0.98,3.9c-0.65,1.41-0.65,2.71-0.98,4.44
		c-0.11,0.65-0.11,0.87-0.22,1.52c-0.33,2.17,0,3.79-0.76,5.64c-0.11,0.33-0.11,0.76-0.11,1.19c-0.11,2.71-0.11,5.42-0.11,8.13
		c0,2.06,0.33,3.79,1.19,5.96c0.22,0.54,0.65,0.76,1.3,0.87c0.76,0.11,1.3,0.22,1.95,0.22c0.76,0,1.63-0.11,2.6-0.11
		c0.33,0,0.54,0,0.87-0.22c0.98-0.65,1.84-0.87,2.49-1.84c2.82-4.01,4.23-6.07,6.29-10.95c0.22-0.65,0.65-1.08,1.08-1.63
		c0.87-1.08,1.52-2.38,1.84-3.69c0.22-0.65,0.54-1.19,0.76-1.84c0.33-0.87,0.76-1.73,1.08-2.6c0.54-1.41,0.76-2.93,0.87-4.34
		c0.43-1.08,0.76-2.06,1.19-3.04c0.11-0.76,0.11-1.41,0.33-2.06c0.54-1.84,0.65-3.69,0.76-5.64c0-0.22,0.11-0.54,0.22-0.76
		c0.22-0.43,0.22-0.87,0.22-1.3c0-0.33,0-0.65-0.11-1.08v-0.33c0-0.65,0.22-1.41,0.33-2.06v-0.54c0-0.65-0.11-1.3-0.33-1.84
		C594.31,535.72,594.2,534.85,594.2,534.1z"/>
	<path class="st1" d="M641.57,521.63c0-0.43,0.11-0.87,0.22-1.41c0.11-0.43,0.11-0.76,0.22-1.08c-0.33-0.76-0.54-1.41-1.08-1.95
		c-0.33-0.11-0.65-0.22-1.08-0.33c-0.11,0-0.33-0.11-0.43-0.11c-0.65,0-1.3,0.43-1.63,1.08c-0.22,0.33-0.33,0.76-0.33,1.19V520
		c0,0.33,0,0.65,0.11,0.98c0.43,1.19,0.54,2.49,0.54,3.69v1.19v1.08v2.82c0,1.08-0.11,1.95-0.33,2.93c-0.54,2.6-1.19,5.09-1.19,7.8
		v1.19c0,1.19-0.11,2.38-0.33,3.58c-0.33,1.84-0.87,3.58-1.41,5.42c-0.11,0.54-0.54,0.98-1.08,1.19c-0.98-0.65-1.19-0.76-1.3-1.41
		c-0.22-1.63-0.54-3.36-1.3-4.77c-1.41-2.93-1.84-6.18-3.47-9c-0.11-0.11-0.11-0.33-0.11-0.43c0-1.08-0.65-2.06-0.87-3.14
		c-0.22-0.98-0.22-1.95-0.54-2.82c-0.33-0.98-0.11-2.06-0.65-3.25c-0.43-0.98-1.19-1.19-1.84-2.06s-0.43-2.06-1.52-2.28
		c-0.33-0.11-0.65-0.11-0.98-0.11c-1.08,0-2.06,0.43-2.6,1.52l-2.6,5.53c-0.54,1.19-1.08,2.49-1.41,3.79
		c-0.98,3.25-2.6,6.29-2.71,9.76c0,0.22-0.33,0.54-0.33,0.76c-0.33,1.95-1.08,3.9-1.08,5.85v1.19c0,2.38-0.98,4.66-0.98,7.05
		c-0.76,1.19-0.54,2.6-0.65,3.9c-0.11,1.84,0.11,3.9-0.65,5.75c-0.11,0.33-0.11,0.76-0.11,1.19c0,2.17-0.11,4.34-0.87,6.4
		c0,0.11-0.11,0.22-0.11,0.33c0,0.76,0.87,1.73,1.63,1.84h0.54h1.08c0.76-0.11,1.63-0.87,1.63-1.63c0.11-1.95,0.11-3.69,0.22-5.96
		c0.11-0.22,0.33-0.65,0.54-1.3c0-1.52,0.11-3.04,0.11-4.66v-1.19c0-0.98,0-1.95,0.54-2.93c0.22-0.43,0.22-1.08,0.22-1.63
		c0-1.19,0.11-2.38,0.11-3.47c0.33-0.65,0.54-1.19,0.76-1.73c0-0.54,0-1.08,0-1.63c0.11-0.76,0-1.63,0.11-2.38
		c0.22-0.65,0.43-1.19,0.65-1.84c0.11-0.43,0.33-0.87,0.43-1.3c0.11-0.54,0.33-0.98,0.33-1.52c0-1.19,0.43-2.38,0.65-3.58
		s0.65-2.38,1.08-3.58c0.76-2.06,1.08-4.23,2.06-6.07c0.22,0,0.54-0.11,0.76-0.11h0.11c0.33,0.22,0.65,0.54,0.87,0.87
		s0.33,0.65,0.43,1.08l1.63,5.85c0.65,2.06,1.41,4.12,2.06,6.18c0.43,1.41,0.98,2.93,1.63,4.23c0.11,0.22,0.11,0.43,0.22,0.76
		c0.11,1.08,0.22,2.17,0.22,2.93c0.54,1.3,0.98,2.28,1.41,3.14c0.11,1.63,0.11,3.14,0.22,4.66v1.08v1.19c0,0.87,0,1.63,0.33,2.49
		c0.43,1.41,0.22,2.93,0.76,4.66c0.22,0.65,0.54,1.19,1.19,1.3c0.22,0,0.54,0.11,0.76,0.11c0.87,0,1.41-0.33,2.28-0.76
		c0.54-0.22,0.65-0.76,0.87-1.3c0.22-0.43,0.22-0.87,0.22-1.3v-0.65v-0.54c0-0.54,0.22-1.08,0.33-1.63
		c0.54-1.95,0.87-3.58,1.41-5.85c0.43-1.73,0.54-2.71,0.98-4.44c0.33-1.19,0.43-2.06,0.76-3.04c0.33-1.08,0.43-2.17,0.54-3.25
		c0-0.43,0-0.87,0.22-1.19c0.65-1.08,0.54-2.38,0.65-3.58s0.22-2.38,0.22-3.25c0.33-0.87,0.43-1.41,0.54-1.73
		c0-1.95,0.11-3.79,0.11-5.53c0-1.84,0.65-3.36,0.65-5.53c0-1.3-0.22-2.28-0.33-3.69C641.78,523.26,641.57,522.39,641.57,521.63z"/>
	<path class="st1" d="M691.86,532.79c-0.98-1.3-2.06-2.38-3.36-3.14c-1.84-1.08-3.58-2.38-5.53-3.36c-3.04-1.52-6.18-2.93-9.21-4.34
		c-2.6-1.19-5.2-2.28-8.13-2.49c-0.54,0-0.98-0.33-1.52-0.43c-1.08-0.33-2.06-0.76-3.14-0.98h-0.43c-0.65,0-1.08,0.43-1.73,0.76
		c-0.43,0.22-0.65,0.54-0.65,0.98c0,1.52,0.65,2.6,0.65,3.9c0,0.33-0.11,0.87-0.11,1.41c-0.11,3.79,0,7.15-0.22,11.71
		c0,0.65-0.43,0.98-0.43,1.63c-0.22,2.82-0.22,4.55-0.33,7.37c-0.11,2.49-0.11,4.34-0.11,6.5c0,0.43,0,0.87-0.11,1.19
		c-0.43,1.08-0.43,2.17-0.43,3.25v3.79v1.84c0,1.52,0,3.14-0.33,4.55c-0.43,1.63-0.43,3.14-0.54,4.77c0,0.98-0.22,1.95-0.54,2.82
		c-0.43,1.08-0.76,2.28-1.08,3.47c0,0.22-0.11,0.43-0.11,0.65c0,0.65,0.33,1.19,0.76,1.63c0.54,0.65,1.41,0.98,1.73,1.84
		c0.11,0.43,0,0.98,0.22,1.52c0.11,0.33,0.33,0.76,0.65,0.98c0.33,0.33,0.76,0.43,1.19,0.43c0.65,0,1.3-0.33,1.84-0.65
		c1.08-0.76,0.87-2.06,1.73-3.04c0.65-0.76,1.63-0.87,2.17-1.41c0.98-0.98,1.95-1.95,2.71-3.04c0.87-1.3,1.73-2.49,2.93-3.36
		c1.41-0.98,2.38-2.28,3.47-3.47c0.87-0.87,1.63-1.73,2.38-2.71c1.73-2.28,3.58-4.44,5.64-6.4c0.33-0.33,0.43-0.76,0.65-1.08
		c1.08-1.3,1.41-2.6,2.49-4.12c0.76-1.08,1.63-1.41,2.28-2.6c2.06-3.58,3.04-6.4,4.55-9.43c0.43-1.63,1.08-3.14,1.08-4.88v-1.84
		c0-0.54,0-1.19-0.11-1.84C692.62,534.2,692.19,533.45,691.86,532.79z M686.33,545.69c-0.87,1.84-1.84,3.25-3.04,5.31
		c-2.17,3.58-3.69,5.85-5.53,8.89c-0.65,1.08-1.52,2.06-2.38,2.93c-1.84,1.84-3.69,3.58-5.09,5.75c-0.43,0.65-1.08,1.19-1.63,1.84
		c-0.76,0.76-1.41,1.63-2.06,2.49c-1.73,2.28-3.69,4.34-5.75,6.18h-1.08c-0.11-0.33-0.54-0.65-0.54-0.98v-0.54
		c0-0.76,0.22-1.52,0.43-2.28c0.33-0.76,0.43-1.52,0.43-2.38v-0.65c0-1.63,0.11-3.36,0.65-4.99c0.22-0.76,0.22-1.63,0.22-2.38
		s-0.11-1.41-0.11-2.17c0-2.06,0.22-4.23,0.22-6.29v-0.54c0-0.54-0.11-0.98-0.11-1.52c0-1.73,0.11-3.25,0.11-5.31v-1.3v-0.87
		c0.11-1.63,0.22-2.38,0.43-4.01c0.11-0.76,0.22-1.19,0.22-1.95c0.11-3.04,0.11-5.2,0.11-7.8c0-1.73,0.11-3.58,0.11-4.99
		c0.33-1.19,0.54-2.17,0.87-3.04c0.22-0.54,0.54-0.98,1.19-1.3c0.22,0,0.54-0.11,0.98-0.11h0.11c1.41,0,2.93,0.76,4.34,0.87
		c0.65,0,1.19,0.43,1.84,0.76c0.98,0.54,1.84,0.98,2.82,1.52s1.84,1.08,2.93,1.41c1.19,0.33,2.17,0.98,3.25,1.63
		c1.52,0.87,3.04,1.84,4.55,2.71c0.87,0.43,1.52,1.19,2.17,1.73c0.43,0.87,0.65,1.63,0.98,2.17c0.11,0.76,0.22,1.52,0.22,2.17
		C688.18,541.14,687.42,543.42,686.33,545.69z"/>
	<path class="st1" d="M730.99,549.38c-0.76-0.33-1.41-0.87-1.52-1.84c0.54-0.98,0.43-2.06,0.43-3.14v-5.75v-7.48
		c0-1.52,0-2.93-0.54-4.34c-0.22-0.65-0.22-1.3-0.32-1.95c-0.11-0.65,0-1.41-0.54-2.38c-0.43-0.43-0.97-0.98-1.73-1.63
		c-0.22-0.22-0.76-0.22-1.08-0.33c-0.65,0.54-0.87,1.08-1.19,1.73c-0.98,2.28-2.28,4.34-2.93,6.72c-1.62,3.14-3.14,6.4-4.88,9.43
		c-1.19,2.06-2.17,4.12-3.25,6.18c-0.33,0.54-0.54,1.19-1.08,1.63c-0.33,0.11-0.54,0.11-0.76,0.11c-0.97-0.22-1.84-0.54-2.82-0.65
		c-0.87-0.11-1.52-0.43-2.28-0.65c-0.87-0.33-1.84-0.54-2.82-0.76c-0.33,0.11-0.76,0.22-1.08,0.43l-0.98,0.65
		c-0.11,1.08,0.43,1.84,1.08,2.6c0.33,0.22,0.65,0.43,1.08,0.54c0.54,0.11,1.08,0.33,1.63,0.33h0.32c1.41,0,2.6,0.65,4.01,0.87
		c0.43,0.11,0.87,0.98,0.76,1.41c-0.32,2.06-1.08,3.9-2.38,5.64c-0.11,0.65-0.22,1.52-0.43,2.28s-0.65,1.52-0.97,2.28
		c-1.19,3.14-2.38,6.4-3.9,9.43c-0.11,0.22-0.33,0.54-0.33,0.76c-0.11,1.84-1.08,3.25-1.52,4.99c0.22,0.54,0.43,0.98,0.76,1.52
		l1.62,0.98c0.98-0.22,1.63-0.54,1.73-0.98c0.33-0.98,0.87-2.06,0.98-3.14c0.22-1.63,0.87-3.14,1.41-4.66
		c0.54-1.52,0.87-3.14,1.63-4.55c0.76-1.63,1.19-3.36,1.84-4.99c0.43-0.98,0.65-2.06,0.98-3.04c0.22-0.54,0.43-1.08,0.65-1.52
		c0.43-0.76,0.97-1.3,1.3-2.06c0.43-0.87,0.65-1.73,0.97-2.6c0.43-0.33,0.65-0.54,1.08-0.87h3.47c1.63,0.65,3.04,1.63,4.66,1.95
		c0.11,0,0.22,0.11,0.32,0.22c0.33,0.22,0.54,0.54,0.65,0.98v0.43c0,0.43,0.11,0.76,0,1.19c-0.32,1.73-0.76,3.47-0.87,5.2
		c-0.54,0.98-0.65,2.06-0.76,3.14c-0.11,1.19-0.65,2.38-0.76,3.58c-0.22,2.06-0.97,4.01-0.97,6.07c0,0.43-0.22,0.65-0.33,1.08
		c-0.22,0.76-0.32,1.52-0.32,2.17c0,0.76,0,1.41,0.22,2.06c0.22,0.33,0.32,0.43,0.43,0.54c0.76,0.76,1.41,0.76,2.06,0.11
		c0.65-0.76,0.98-1.63,1.3-2.82v-3.58c0.54-1.52,1.08-2.82,1.41-4.12c0.22-0.87,0.22-1.84,0.32-2.82c0.11-1.08,0.76-2.06,0.65-3.14
		c0-0.98,0.33-1.95,0.54-2.82c0.32-1.41,1.08-2.6,1.08-4.01c0-1.19,0.54-1.63,1.52-1.95c0.43-0.11,0.76-0.11,1.19-0.22
		c0.98-0.33,1.52-1.08,1.52-2.17c0-0.54-0.11-1.08-0.65-1.63C732.19,549.81,731.64,549.71,730.99,549.38z M725.9,546.78
		c0,0.76-0.22,1.3-1.08,1.73c-0.87,0.11-1.73-0.43-2.6-0.54c-1.19-0.87-2.6-0.54-4.01-0.76c-0.76-0.54-1.19-0.87-1.19-1.52
		c0.11-1.52,1.3-2.6,1.63-4.12c0.32-1.3,1.19-2.38,1.95-3.47c0.43-0.65,0.87-1.52,0.97-2.28c0.33-1.84,1.41-3.14,2.28-4.66
		c0.32-0.11,0.65-0.11,0.87-0.22c0.65,0.33,0.97,0.87,1.08,1.63c0.11,0.98,0.22,1.84,0.22,2.82
		C726.01,539.19,725.9,542.98,725.9,546.78z"/>
	<path class="st1" d="M770.02,521.63c0-0.33-0.43-0.65-0.65-0.98c-0.11-0.11-0.32-0.22-0.54-0.22s-0.43,0-0.54,0.11
		c-1.95,1.63-3.04,3.79-3.79,6.18c-0.87,2.6-2.28,4.99-2.93,7.59c-0.11,0.22-0.11,0.43-0.32,0.65c-0.65,0.76-0.98,1.73-1.19,2.6
		c-0.22,0.65-0.87,2.28-1.19,3.04c-0.76,0.11-0.98-0.22-1.73-0.22h-0.11c-0.65-0.11-1.08-0.43-1.3-0.87
		c-0.65-1.3-1.73-2.49-2.6-3.47c-0.87-1.84-1.62-3.69-2.06-5.53c-0.65-2.6-1.08-4.88-2.49-7.7c-0.54-0.98-1.08-1.73-2.28-1.73
		c-1.41,0-2.17,2.28-2.17,3.14c0,1.84,1.52,2.82,2.06,4.34c0.65,1.63,1.08,3.25,1.63,4.99c0.43,1.41,0.97,2.82,1.73,4.12
		c1.41,2.6,2.93,5.09,6.07,6.18c0.22,0.11,0.43,0.43,0.65,0.54c0.54,0.43,0.97,0.87,1.19,1.52c-0.11,0.43-0.22,0.76-0.32,1.19
		c-0.22,1.3-0.43,2.38-0.76,3.9c-0.32,1.84-0.76,3.14-0.87,4.77c-0.11,1.63-0.43,3.14-0.87,4.77c-0.65,2.6-1.19,5.31-2.17,7.8
		c-0.43,0.98-0.76,2.06-0.97,3.14c-0.11,0.54-0.22,1.19-0.22,1.84v0.54c0,0.22,0.11,0.76,0.43,0.65c0.76-0.22,0.87,1.41,1.41,0.98
		c0.65-0.22,1.52-2.06,1.95-2.82c0.65-1.19,0.76-2.71,1.08-4.01c0.22-0.76,0.54-1.52,0.65-2.28c0.11-1.95,0.87-3.69,1.41-5.53
		c0.43-1.52,0.87-3.04,1.08-4.66c0.22-1.52,0.54-2.6,0.87-4.34v-0.43c0.43-1.84,0.65-3.14,1.08-4.77c0.54-1.95,1.3-3.9,1.73-5.85
		c0.43-1.73,0.97-3.47,2.06-4.88c1.52-1.95,1.95-3.9,3.14-6.5c0.76-1.73,1.3-2.82,1.84-4.66c0.22-0.65,0-1.08,0-1.73V521.63z"/>
	<path class="st1" d="M208.9,193.89c-4.09-7.85-8.19-8.53-16.38-13.31c-2.05-1.36-5.46-2.39-8.19-2.39c-0.68,0-1.36,0-2.05,0.34
		c-9.9,3.41-15.7,5.12-24.23,11.26c-9.21,6.48-13.31,13.31-20.13,20.47c-3.07,3.07-5.8,5.8-6.48,10.58
		c-0.34,2.39,2.39,3.75,4.1,4.78c2.73,1.71,6.48,1.02,8.19-1.36c2.05-2.73,3.75-5.8,6.14-8.19c4.78-4.44,7.51-9.21,13.65-13.65
		c6.14-4.44,10.24-6.48,17.75-8.87c3.41-1.02,6.82-0.68,9.55,0.68c4.44,4.44,8.53,9.55,11.6,17.06c1.71,4.44,2.73,8.19,2.73,12.29
		c0,1.71,0,3.41-0.34,5.46c-0.68,3.41-1.37,7.17-2.73,11.6c-1.71,5.12-3.75,7.85-5.12,12.28c-3.41,11.6-9.21,22.18-15.36,32.42
		c-1.36,2.05-3.07,4.09-3.75,6.48c-2.73,7.51-5.46,13.65-9.89,21.84c-2.73,4.78-6.82,7.17-8.53,11.6
		c-2.05,4.78-5.46,8.53-7.51,13.31c-3.75,8.53-8.19,17.06-12.63,25.25c-3.41,6.83-6.48,13.65-11.26,19.79
		c-1.36,1.71-1.71,3.75-2.73,5.8c-1.36,2.73-3.07,6.83-3.41,9.55c-0.68,5.8-1.02,6.14-2.73,11.6c-0.68,2.05,0,6.82-1.02,8.53
		c-0.68,1.02-1.02,1.71-1.02,2.73c0,2.39,2.39,4.44,5.8,5.8h5.46h3.07c3.75,0,7.51,0,10.92,1.71c1.36,0.68,3.41,0.34,5.12,0.68
		c1.71,0.34,3.41,0.34,4.78,1.02c3.41,1.71,7.17,2.05,10.58,2.05c1.71,0,3.07-0.34,4.78-0.34c1.36,0,2.39-0.34,3.41-1.37
		c1.36-1.36,2.73-2.73,2.05-4.44c-1.36-4.1-2.39-7.85-6.82-9.21c-1.02,0-2.39-0.34-3.75-0.34c-0.68,0-1.02,0.34-1.71,0.34
		c-4.78,0-8.87-1.71-14.67-2.39c-2.05-0.34-3.07-0.34-4.78-0.68c-2.39-0.34-5.46-3.07-5.46-5.12c0-2.39,0-5.46,1.02-7.85
		c1.02-2.05,1.36-3.07,1.36-5.46c0-5.8,4.78-10.58,5.8-16.04c0.34-2.39,1.71-4.78,3.41-6.82c2.05-2.73,3.75-5.8,5.12-8.87
		c3.41-6.82,5.8-12.63,9.55-20.81c2.05-4.44,3.07-7.17,5.46-11.6c2.39-4.44,3.41-7.51,6.14-10.92c1.36-1.71,3.07-3.41,4.09-5.12
		c2.73-5.8,7.51-9.21,10.92-15.7c1.37-2.73,2.39-5.12,3.75-7.85c2.05-4.1,2.39-6.14,4.44-9.21c2.05-3.41,3.75-6.83,5.46-10.24
		c0.68-1.02,1.02-2.05,1.71-3.07c4.78-9.9,8.19-18.43,11.6-31.05c1.71-5.8,2.05-10.92,2.05-16.04v-4.44c0-1.36-0.68-2.73-1.02-3.75
		C214.02,207.54,212.31,200.37,208.9,193.89z"/>
	<path class="st1" d="M317.48,324.24c0.79-3.75,1.19-6.87,1.19-10.62c0-3.12,0-6.87-1.19-9.99c-0.79-1.87-1.19-4.37-1.19-6.25
		c0-2.5,0.4-4.37,1.19-6.87c0.4-1.25,0.79-3.75,0.79-4.99c-1.19-5-1.98-10.62-3.17-16.24c-1.19-1.88-2.78-4.37-3.57-6.87
		c-3.96-11.24-9.11-20.61-16.65-25.61c-0.79-0.62-1.19-2.5-1.98-3.12c-2.78-3.12-5.15-5.62-8.32-8.12h-0.39H283
		c-5.15-1.25-8.32-4.37-13.08-4.37h-1.98c-4.36,0.63-6.34,4.37-9.51,8.74c-6.34,15.62-14.27,30.6-19.03,48.72
		c-0.79,6.87-1.58,11.87-2.38,16.24c-0.4,2.5-1.19,3.75-1.19,6.25c-0.79,9.37-2.38,16.86-3.17,27.48
		c-0.79,11.87-0.79,19.99-0.79,29.98c0,8.74,1.98,15.61,3.17,25.61c0.4,2.5,0,5,0.4,7.5c0.4,4.99-0.4,8.12,1.19,11.87
		c3.57,8.12,6.74,11.24,11.5,17.49c1.19,1.88,2.38,1.25,3.96,2.5c1.98,1.25,3.17,2.5,5.15,3.12l1.59,0.63
		c0.79,0,1.19-0.63,1.98-0.63c9.91-5.62,16.65-8.74,24.58-15.61c1.58-1.25,3.17-3.75,4.75-5.62c7.53-10.62,10.7-23.11,16.65-38.72
		c3.57-9.99,5.55-15.61,8.33-26.23C316.69,334.23,316.29,329.24,317.48,324.24z M302.81,313.62c-1.58,5-1.19,10.62-1.98,16.24
		c-2.77,8.75-5.95,17.49-8.72,26.86c-3.56,12.49-8.32,23.11-15.85,31.85c-1.98,1.87-4.75,4.37-7.53,6.25
		c-2.38,0.63-4.36,0.63-6.74,0.63c-1.98,0-4.36,0-6.34-1.25c-0.79-1.25-1.58-2.5-1.98-3.75c-1.98-9.37-3.96-19.36-6.34-31.23v-24.98
		c0.79-3.12,1.98-6.87,2.78-10.62c0-4.37-0.4-9.37-0.4-14.36c0-3.12,0.4-6.87,0.4-9.99c0.4-9.37,1.98-18.74,6.34-26.23
		c3.17-5.62,4.36-11.24,6.34-17.49c1.98-6.87,3.96-10.62,9.12-11.24h0.79c4.36,0,5.55,3.75,9.51,8.12c1.58,1.87,4.76,3.75,7.53,5.62
		c3.57,3.12,5.95,7.5,7.93,13.12c2.38,7.5,4.76,14.37,5.95,24.36c0.4,3.12,0.4,5.62,0.4,8.12
		C304.01,307.38,303.61,310.5,302.81,313.62z"/>
	<path class="st1" d="M431.38,401.02c1.36-2.39,3.07-5.46,4.44-7.85c0.34-5.12,0.68-8.53,0.68-11.6c0-3.75-0.34-7.17-1.02-13.65
		c-1.03-1.02-2.39-2.05-3.07-2.73c-3.07-1.02-5.46-1.71-7.85-2.39c-1.36,0.68-3.41,1.02-5.46,1.71c-1.02,1.02-2.39,2.73-3.75,4.44
		c-1.37,1.71-3.07,2.73-4.1,4.09c-0.68,3.07-0.68,5.8-1.71,8.19c-1.71,3.75-1.71,7.51-1.71,11.6v5.12c0,2.05,0.34,4.09,1.02,5.8
		c2.05,1.71,3.75,3.07,6.48,3.41C420.8,405.79,426.26,405.11,431.38,401.02z M420.46,380.88c1.02-1.36,2.73-1.02,4.44,0
		c0.34,0.34,0.68,0.34,1.02,1.02v6.14c-1.02,1.36-2.05,2.73-3.41,3.75c-1.37,1.02-3.75,0-4.1-1.36
		C417.73,387.03,418.07,383.61,420.46,380.88z"/>
	<path class="st1" d="M442.64,187.41h-5.8c-5.12,2.05-6.82,6.14-7.51,10.24c-0.68,4.78-2.39,9.21-4.78,13.31
		c-3.41,5.8-5.8,12.29-7.85,18.77c-1.36,4.1-3.07,7.85-4.44,11.94c-1.71,4.44-3.41,8.87-5.8,12.97c-1.71,3.07-3.07,6.14-4.44,9.21
		c-3.07,6.14-6.48,11.94-8.87,18.43c-2.05,5.12-4.78,10.24-6.82,15.36c-2.39,5.46-3.07,11.26-5.8,16.72
		c-0.68,1.02-1.02,2.05-1.37,3.41c-1.71,4.44-3.75,8.87-4.44,13.65c-0.34,2.05-0.68,3.75-1.71,5.8c-4.78,9.55-9.9,19.45-14.33,29
		c-4.78,9.9-9.21,20.13-13.65,30.37c-0.34,0.68-0.34,1.37-0.68,2.39c-0.34,3.41-1.02,6.82,0,10.24c3.07,2.73,6.14,2.05,9.21,0.68
		c2.73-2.05,5.12-4.78,6.14-8.19l3.07-8.19c2.05-6.48,4.78-12.97,7.85-19.11c1.03-2.39,2.39-4.44,3.41-6.83
		c0.34-2.05,0.68-4.09,1.03-6.48c1.02-1.36,2.73-3.41,3.75-5.12c5.12-9.55,10.24-18.77,13.31-29c1.71-5.8,4.1-11.26,5.46-17.06
		c1.37-6.14,5.8-11.6,5.8-18.09c0-0.34,0.68-0.68,0.68-1.02c1.37-3.75,4.44-6.48,5.8-9.9s2.39-7.17,4.44-10.58
		c0.34-0.34,0.34-0.68,0.68-1.02c2.39-2.05,3.07-5.12,4.44-7.85c1.71-3.41,3.76-6.83,4.78-10.58c1.37-4.09,3.76-7.85,5.46-11.6
		c0.68-1.02,1.36-2.05,1.36-3.41c0.34-3.41,2.05-6.48,3.76-9.55c3.41-6.48,6.48-12.97,10.58-19.11c1.71-2.39,3.07-5.46,3.76-9.55
		v-3.75C448.78,190.14,446.39,187.41,442.64,187.41z"/>
	<path class="st1" d="M375.08,190.48c-1.03,0-2.39-0.34-3.76-0.34c-1.36,0-2.39,0.34-3.41,0.34c-3.41,2.05-5.8,5.12-8.19,8.19
		c-1.71,5.12-3.41,10.58-5.12,15.7c-0.68,2.39-1.36,4.43-1.36,6.82s0.34,4.44,1.02,6.82l3.07,8.19c1.03,0.68,2.05,1.71,3.07,2.39
		c2.05,0.34,3.76,0.34,5.8,0.34c2.39,0,4.78,0,7.17-0.34c0.68,0,1.71-0.34,2.39-0.68c8.53-5.46,11.26-14.33,13.31-23.54
		C386.67,204.81,383.61,196.28,375.08,190.48z M369.61,228.35c-1.71,0-3.07-0.68-3.41-2.73c-0.34-1.71-0.34-3.41-0.34-5.12
		c0-2.39,0.34-5.12,0.34-7.17c1.37-3.41,3.07-5.12,6.14-6.82c0.68,0.68,2.05,0.68,2.73,1.71c1.02,1.71,2.05,3.75,3.07,5.46
		C377.46,219.82,375.42,225.28,369.61,228.35z"/>
	<path class="st1" d="M658.28,286.7c0.34-3.75,1.71-7.17,2.39-10.92c-0.34-1.71-1.71-3.07-1.71-5.46c0-3.07,2.05-4.44,2.05-7.17
		c0.34-2.73,0.34-5.46,0.34-8.19c0-5.12,0-9.55-0.34-14.67c0-3.75-2.05-7.51-2.73-11.26c0-0.34-0.68-0.68-1.02-1.36
		c-1.37-0.68-3.07-1.02-4.44-1.71c-4.44,1.02-5.8,4.78-7.17,8.53c0.68,1.71,1.71,3.41,2.39,5.46c0.68,2.39,1.02,5.12,1.71,7.51
		c1.02,2.73,1.37,5.12,1.37,7.85c0,2.39-0.34,5.12-1.02,7.51c-0.68,3.07-1.37,5.46-1.37,8.53c0,5.8-1.71,9.9-2.73,16.38
		c-1.02,5.46-2.73,9.21-2.73,13.99c0,4.78-3.07,8.53-4.77,12.97v1.37c0,4.44-2.73,8.19-4.44,11.94c-2.05,4.44-5.8,8.53-7.16,13.65
		c-0.34,1.02-1.37,2.05-2.05,3.07l-6.14,8.19c-3.75,4.78-7.85,9.21-12.28,12.63c-1.71-0.34-2.39-1.37-3.07-2.73
		c1.37-3.41,1.71-7.17,1.71-10.58c0-1.71-0.34-3.07-0.34-4.78c0-1.36,0.34-3.07,0.34-4.44c1.37-2.39,2.05-4.78,2.05-7.51v-0.68
		v-0.68c0-1.71,0-3.75,0.68-5.12c1.37-3.41,2.39-6.48,2.39-9.9s2.05-6.48,2.05-9.9v-0.34c0-3.07,1.03-5.8,2.05-8.53
		c2.73-6.14,3.07-12.97,5.46-19.45c0.68-1.71,0.68-3.41,1.03-5.46c2.39-3.41,4.1-6.82,5.46-10.92c2.05-5.8,4.78-11.26,8.87-15.7
		c3.75-4.1,6.14-8.87,8.19-14.67c-2.73-2.39-3.75-6.14-8.19-6.14h-0.68c-2.73,1.36-4.78,3.75-6.14,6.48
		c-2.39,4.44-5.12,8.53-7.85,12.97c-3.07,4.78-3.75,10.58-5.46,15.7c-0.68,2.05-1.71,3.75-2.39,5.8c-0.68,2.05-2.05,4.09-2.39,6.14
		c-1.71,8.19-5.46,16.04-5.8,24.57c0,0.68-1.02,1.71-1.02,2.39c-1.37,7.17-3.76,13.99-3.76,21.5c0,3.75-0.34,6.82-1.36,10.24
		c-0.68,2.39-1.02,5.12-1.37,7.51c-0.34,2.39-1.36,4.78-1.71,7.17c-0.34,4.1-0.34,8.53-0.68,12.97c0,2.05-0.34,4.44-1.02,6.48
		c-1.36,3.07-1.36,6.14-1.36,9.55v4.1c0,1.02,1.36,2.73,2.39,2.73c3.41,0,6.14,1.02,9.9-0.34c3.76-1.36,5.8-4.43,8.19-6.48
		c6.48-5.46,12.29-11.94,17.06-19.11c2.05-3.41,4.1-6.48,6.48-9.55c2.05-2.73,3.75-5.8,4.44-9.21c0.34-2.05,1.37-3.75,2.73-5.46
		c1.37-1.71,2.05-3.75,2.73-5.8c1.36-4.44,2.73-9.21,4.77-13.31c2.05-4.44,2.73-8.87,4.1-13.31
		C656.57,296.94,657.6,291.82,658.28,286.7z"/>
	<path class="st1" d="M812.85,213.68c-0.34-0.34-1.02-0.68-1.36-0.68c-7.51-2.05-14.33-5.8-21.84-7.17
		c-7.51-1.36-15.01-2.73-22.52-4.78c-0.68-0.34-4.43-0.68-7.17-2.05c-0.68-0.34-1.02-3.07-3.07-5.12c-1.03-1.02-1.37-2.39-3.07-2.39
		c-3.41,0-4.1,2.05-6.82,2.73c-2.73,0.68-2.73,4.78-4.78,6.14c-1.36,0.68-2.73,1.02-3.75,1.02c-1.37,0-2.73-0.34-4.1-0.34h-1.02
		c-1.71,0-3.41,0.34-4.78,1.71l-2.05,4.1c0.34,2.39,1.71,4.44,3.07,6.14c2.39,1.02,4.44,1.37,6.82,2.39
		c1.02,0.34,1.71,2.05,2.73,3.07c-0.68,6.48-1.03,11.6-1.71,19.11c-0.68,7.85-1.36,12.63-2.05,20.47c0,0.34-0.34,0.68-0.34,1.02
		c-0.68,4.44-1.37,7.85-1.37,11.6c0,5.12-0.68,10.24-0.68,14.67c-1.02,3.07-1.36,5.8-3.41,7.51c-1.37,1.02-3.41,1.02-5.12,1.02
		h-1.71h-6.48h-8.53c-2.73,0-5.12,3.41-5.12,6.48c0,1.71,0.68,1.37,2.05,2.73c1.37,1.71,3.07,3.07,5.12,3.75
		c0.68,0.34,1.71,0.34,2.39,0.34c3.76,0,7.51-0.34,11.26-0.34c1.02,0,2.05,0,3.07,0.34c1.37,0.68,2.05,2.39,2.05,4.09
		c0,4.44-0.68,8.87-0.68,13.31c0,3.75-0.68,7.51-1.37,10.92c-0.34,1.36-1.02,5.8-1.02,7.85c0,3.41,0.34,2.73,0.34,5.8v6.48v5.8
		c0,8.87,0.34,17.74,0.34,26.62c0,4.78-0.34,9.55-0.34,14.33c0,4.44,2.39,7.51,6.14,7.85h1.71c4.44,0,6.14-1.71,7.85-6.82
		c0-0.68-0.34-2.39-0.34-4.1c0-1.71,0-3.41-0.68-5.12c-1.02-2.39-1.36-4.44-1.36-7.17c0-4.78-0.34-9.9-0.34-14.67v-3.75
		c0.34-5.12,0.34-9.9,0.34-15.01v-3.41v-5.8c0-2.05,0-4.44,0.34-6.48v-1.02c0-1.36-0.34-2.39-0.34-3.41v-0.68
		c-0.34-0.68-0.34-1.37-0.34-2.05c0-1.37,0.34-2.39,0.34-3.41c0-0.34-0.34-1.02-0.34-1.36c-0.34-0.34-0.34-1.02-0.34-1.36
		c0-3.07,3.41-6.14,3.41-9.55c0-2.39,1.71-5.12,2.39-7.51c1.36-3.75,5.8-5.8,9.55-5.8c8.53,0.34,17.06,0.68,25.59,0.68
		c2.39,0,5.46-0.34,7.85-0.34c2.73-0.34,5.12-1.36,5.12-4.44c0-2.73-1.71-4.78-4.44-6.14c-1.71-0.34-3.41-0.68-5.12-0.68
		c-2.39,0-4.78,0.34-7.17,0.34c-2.05,0-4.78,0.34-6.82,0.34c-4.78,0-9.21-0.34-13.99-0.68c-0.68,0-1.36-0.68-2.73-1.02h-0.34
		c-1.03,0-3.42,0.34-4.78,0.34c-0.68,0-1.37,0-1.71-0.34c0-2.05,0.68-6.82,1.02-8.53c0.68-2.05,1.02-3.75,1.02-5.8
		c0-2.05-0.34-3.41-0.34-5.46c0-4.78,1.71-8.53,2.39-13.99c0.34-2.39,0.34-3.75,0.68-6.14c0.34-2.39,0.68-4.1,1.03-6.48
		c0.34-1.02,0.34-1.71,0.34-2.39c0-1.71-0.34-3.41-0.34-5.12v-1.36c0.68-5.12,1.02-11.94,1.36-16.04c1.37-3.41,7.85-3.07,11.26-4.44
		c1.02-0.34,1.71-0.68,2.73-0.68c1.37,0,2.73,0.34,4.09,0.34c2.05,0,4.1,0,6.48,0.34c6.14,1.02,10.24,3.41,15.01,5.12
		c3.76,1.36,7.17,1.71,9.9,4.44c1.37,1.02,2.73,0.34,4.09,1.36c0.68,0.34,1.71,0.68,2.39,1.02c1.71,0.34,3.41,2.05,4.78,2.05
		c0.34,0,0.68,0,1.02-0.34c3.07-1.71,4.1-3.41,4.1-5.8c0-0.68-0.34-1.71-0.34-2.39C817.62,216.07,815.24,215.39,812.85,213.68z"/>
	<path class="st1" d="M937.72,198.67c-3.41-1.02-6.48-1.36-9.21-1.36c-2.05,0-4.1,0-6.48,0.68c-1.71,0.34-3.07,0.68-4.78,0.68
		c-8.19,0.34-16.38,0.68-24.57,0.68h-3.07c-1.02,0-2.39,0-3.07-0.34c-3.41-1.36-6.82-1.71-10.24-2.05c-1.71,0-3.41-1.02-4.78-1.71
		c-1.71-1.02-3.75-1.71-5.8-1.71c-1.03,0-2.39,0.34-3.42,1.02c-2.39,1.37-1.71,4.1-2.05,6.83v1.02c0,1.71,0.68,2.39,0.68,5.46
		c0,3.75,0.34,7.51,0.34,11.26v11.94c0,2.05,0,4.44-0.68,6.48c-1.71,4.44-1.71,9.21-1.71,13.99c0,6.82-0.34,13.65-0.68,20.47v2.73
		c0,1.02,0,1.71-0.34,2.39c-2.05,4.44-1.71,8.87-2.05,13.65c0,1.71-0.34,3.75-1.02,5.12c-1.03,2.39-1.03,4.78-1.03,7.51
		c0,6.82,0,13.65-0.34,20.47c0,1.71-0.34,3.75-1.02,5.12c-1.37,3.41-1.37,6.82-1.37,10.24v9.89v16.72v17.06
		c0,7.17-0.34,14.67-1.37,21.84v1.71v0.68c0.34,1.02,0.68,2.39,0.68,3.41c0,2.05-0.68,4.09-1.36,6.48
		c-0.34,1.02-0.34,2.39-0.34,3.75c0,3.07,0.68,6.82,2.73,7.85c1.03,0.68,2.05,0.68,2.73,0.68c3.07,0,4.1-3.75,8.87-4.78
		c1.37-0.34,2.05-1.71,2.39-2.73c0.68-2.73,1.02-5.46,1.02-8.19c0-2.39-0.34-4.78-1.02-7.17c-1.02-3.07-1.37-5.8-1.37-8.87v-9.55
		c0-3.75-0.34-8.19-0.34-11.6c0-18.09,0.34-35.83,0.34-53.23c0.68-2.39,1.03-3.75,1.71-5.46c0.68-2.73,2.39-4.44,5.12-5.46
		c3.75,0,7.51-0.34,11.26-0.34h0.34c3.41,0,6.83,0.34,10.24,0.34h0.34h5.12h2.73c1.03,0,2.05,0,3.07-0.68
		c2.39-1.71,3.41-3.07,3.75-5.8v-1.02c0-1.71-0.68-3.41-2.05-4.44c-1.37-1.36-2.73-1.36-4.1-1.36h-3.41h-1.36
		c-1.37,0-1.71,0.34-3.07,0.34c-5.46,0.34-9.21,0.68-13.99,0.68c-2.39,0-5.12-0.34-7.51-0.34c-3.41-0.34-6.14-3.07-6.14-5.8
		c0-0.34,0.34-1.02,0.34-1.36c2.05-6.14,2.39-12.29,2.39-18.77v-4.78c0-1.71,0-3.07,0.34-4.44c1.71-6.14,1.71-12.63,2.05-19.11
		c0-1.71,0.68-3.07,1.37-4.78c0.68-2.05,1.02-4.44,1.02-6.48c0.34-5.46,0.34-11.26,0.68-16.72c0-0.68,0.34-1.71,0.68-2.73
		c0.68-0.68,1.71-2.05,2.73-2.39c4.77-1.71,9.55-2.73,14.67-2.73c1.37,0,2.73,0,4.1,0.34c1.37,0.34,2.39,0.34,3.76,0.68l3.75,0.68
		c0.68,0,1.71,0,2.39-0.34c1.71-0.34,3.41-1.36,5.12-1.36c4.44-0.34,9.21-0.34,13.65-0.34h4.09l7.51,1.37
		c1.02,0,1.71-0.34,2.73-0.68c2.39-1.02,3.07-2.73,3.07-5.12v-1.71C942.16,200.03,940.8,199.35,937.72,198.67z"/>
	<path class="st1" d="M966.03,202.62c1.28-0.51,2.13-1.45,3.07-2.3c0.51-0.43,0.68-1.11,0.43-1.79c-0.43-0.85-1.11-1.28-2.13-1.02
		c-2.22,1.62-4.43,3.32-6.65,4.94c-0.08,0.08-0.17,0.08-0.34,0.17h-0.6c-0.68-0.34-0.94-0.94-1.02-1.62
		c-0.09-0.77-0.17-1.45-0.17-2.22c0-0.85-0.08-1.62-0.43-2.47c-0.17-0.34-0.08-0.85-0.17-1.28c-0.08-0.94-0.77-1.53-1.53-1.88
		c-0.17-0.08-0.43,0-0.6,0c-0.77,0.43-1.11,0.94-1.11,1.79s0.08,1.79,0.43,2.56c0.34,0.68,0.34,1.36,0.34,2.13
		c0,0.68-0.34,1.19-0.94,1.36c-1.36-0.26-2.05-1.28-3.07-1.7h-1.02c-0.43,0.08-0.85,0.34-1.11,0.68c-0.6,0.68-0.34,1.88,0.43,2.3
		c0.43,0.26,0.94,0.51,1.36,0.77c0.51,0.34,1.11,0.6,1.62,0.94c0.85,0.6,1.11,1.36,0.51,2.22c-0.17,0.26-0.43,0.51-0.6,0.77
		c-1.02,1.62-2.22,3.07-2.98,4.6c-0.08,0.26-0.08,0.51-0.08,0.77c0,0.94,0.51,1.53,1.02,2.13c0.34,0.34,0.77,0.26,1.28,0
		c0.43-0.6,0.94-1.19,1.36-1.96c0.94-1.7,2.13-3.15,3.24-4.77c0.17-0.26,0.51-0.43,0.68-0.6c0.26-0.09,0.51-0.09,0.77-0.09
		c0.77,0,1.28,0.26,1.79,0.94c0.6,0.77,1.11,1.62,1.62,2.39c0.68,0.94,1.36,1.88,2.22,2.73c0.6,0.6,1.62,0.51,2.3-0.17
		c0.17-0.17,0.34-0.6,0.43-0.77c-0.85-2.3-2.3-4.18-3.67-6.05c0.08-0.17,0.08-0.26,0.17-0.34
		C963.82,204.58,964.84,203.55,966.03,202.62z"/>
</g>
</svg>
